M48
; DRILL file KiCad 10.0.0 date 2026-04-13T17:13:15
; FORMAT={-:-/ absolute / metric / decimal}
; #@! TF.CreationDate,2026-04-13T17:13:15-04:00
; #@! TF.GenerationSoftware,Kicad,Pcbnew,10.0.0
; #@! TF.FileFunction,Plated,1,2,PTH
FMAT,2
METRIC
; #@! TA.AperFunction,Plated,PTH,ViaDrill
T1C0.300
%
G90
G05
T1
X111.525Y-85.025
X111.525Y-107.025
X111.525Y-129.025
X114.025Y-81.025
X114.025Y-103.025
X114.025Y-125.025
X116.325Y-88.525
X116.325Y-110.525
X116.325Y-132.525
X117.025Y-81.025
X117.025Y-103.025
X117.025Y-125.025
X119.525Y-85.025
X119.525Y-107.025
X119.525Y-129.025
X133.525Y-85.025
X133.525Y-107.025
X133.525Y-129.025
X136.025Y-81.025
X136.025Y-103.025
X136.025Y-125.025
X138.325Y-88.525
X138.325Y-110.525
X138.325Y-132.525
X139.025Y-81.025
X139.025Y-103.025
X139.025Y-125.025
X141.525Y-85.025
X141.525Y-107.025
X141.525Y-129.025
X155.525Y-85.025
X155.525Y-107.025
X155.525Y-129.025
X158.025Y-81.025
X158.025Y-103.025
X158.025Y-125.025
X160.325Y-88.525
X160.325Y-110.525
X160.325Y-132.525
X161.025Y-81.025
X161.025Y-103.025
X161.025Y-125.025
X163.525Y-85.025
X163.525Y-107.025
X163.525Y-129.025
X177.525Y-85.025
X177.525Y-107.025
X177.525Y-129.025
X180.025Y-81.025
X180.025Y-103.025
X180.025Y-125.025
X182.325Y-88.525
X182.325Y-110.525
X182.325Y-132.525
X183.025Y-81.025
X183.025Y-103.025
X183.025Y-125.025
X185.525Y-85.025
X185.525Y-107.025
X185.525Y-129.025
M30
