%TF.GenerationSoftware,KiCad,Pcbnew,10.0.0*%
%TF.CreationDate,2026-04-13T17:13:15-04:00*%
%TF.ProjectId,cortipod-electrode-panel,636f7274-6970-46f6-942d-656c65637472,rev?*%
%TF.SameCoordinates,Original*%
%TF.FileFunction,Soldermask,Top*%
%TF.FilePolarity,Negative*%
%FSLAX46Y46*%
G04 Gerber Fmt 4.6, Leading zero omitted, Abs format (unit mm)*
G04 Created by KiCad (PCBNEW 10.0.0) date 2026-04-13 17:13:15*
%MOMM*%
%LPD*%
G01*
G04 APERTURE LIST*
%ADD10C,1.900000*%
G04 APERTURE END LIST*
D10*
%TO.C,E1_3*%
X155525000Y-79025000D03*
X163525000Y-79025000D03*
X155525000Y-85025000D03*
X163525000Y-85025000D03*
%TD*%
%TO.C,E1_7*%
X155525000Y-101025000D03*
X163525000Y-101025000D03*
X155525000Y-107025000D03*
X163525000Y-107025000D03*
%TD*%
%TO.C,E1_4*%
X177525000Y-79025000D03*
X185525000Y-79025000D03*
X177525000Y-85025000D03*
X185525000Y-85025000D03*
%TD*%
%TO.C,E1_9*%
X111525000Y-123025000D03*
X119525000Y-123025000D03*
X111525000Y-129025000D03*
X119525000Y-129025000D03*
%TD*%
%TO.C,E1_5*%
X111525000Y-101025000D03*
X119525000Y-101025000D03*
X111525000Y-107025000D03*
X119525000Y-107025000D03*
%TD*%
%TO.C,E1_6*%
X133525000Y-101025000D03*
X141525000Y-101025000D03*
X133525000Y-107025000D03*
X141525000Y-107025000D03*
%TD*%
%TO.C,E1_8*%
X177525000Y-101025000D03*
X185525000Y-101025000D03*
X177525000Y-107025000D03*
X185525000Y-107025000D03*
%TD*%
%TO.C,E1_10*%
X133525000Y-123025000D03*
X141525000Y-123025000D03*
X133525000Y-129025000D03*
X141525000Y-129025000D03*
%TD*%
%TO.C,E1_11*%
X155525000Y-123025000D03*
X163525000Y-123025000D03*
X155525000Y-129025000D03*
X163525000Y-129025000D03*
%TD*%
%TO.C,E1_12*%
X177525000Y-123025000D03*
X185525000Y-123025000D03*
X177525000Y-129025000D03*
X185525000Y-129025000D03*
%TD*%
%TO.C,E1_2*%
X133525000Y-79025000D03*
X141525000Y-79025000D03*
X133525000Y-85025000D03*
X141525000Y-85025000D03*
%TD*%
%TO.C,E1*%
X111525000Y-79025000D03*
X119525000Y-79025000D03*
X111525000Y-85025000D03*
X119525000Y-85025000D03*
%TD*%
M02*
