%TF.GenerationSoftware,KiCad,Pcbnew,10.0.0*%
%TF.CreationDate,2026-04-12T17:10:39-04:00*%
%TF.ProjectId,cortipod-electrode-panel,636f7274-6970-46f6-942d-656c65637472,rev?*%
%TF.SameCoordinates,Original*%
%TF.FileFunction,Other,User*%
%FSLAX46Y46*%
G04 Gerber Fmt 4.6, Leading zero omitted, Abs format (unit mm)*
G04 Created by KiCad (PCBNEW 10.0.0) date 2026-04-12 17:10:39*
%MOMM*%
%LPD*%
G01*
G04 APERTURE LIST*
%ADD10C,4.000000*%
G04 APERTURE END LIST*
%TO.C,E1*%
D10*
X112525000Y-81025000D02*
G75*
G02*
X108525000Y-81025000I-2000000J0D01*
G01*
X108525000Y-81025000D02*
G75*
G02*
X112525000Y-81025000I2000000J0D01*
G01*
X122525000Y-81025000D02*
G75*
G02*
X118525000Y-81025000I-2000000J0D01*
G01*
X118525000Y-81025000D02*
G75*
G02*
X122525000Y-81025000I2000000J0D01*
G01*
%TO.C,E1_2*%
X134525000Y-81025000D02*
G75*
G02*
X130525000Y-81025000I-2000000J0D01*
G01*
X130525000Y-81025000D02*
G75*
G02*
X134525000Y-81025000I2000000J0D01*
G01*
X144525000Y-81025000D02*
G75*
G02*
X140525000Y-81025000I-2000000J0D01*
G01*
X140525000Y-81025000D02*
G75*
G02*
X144525000Y-81025000I2000000J0D01*
G01*
%TO.C,E1_6*%
X134525000Y-103025000D02*
G75*
G02*
X130525000Y-103025000I-2000000J0D01*
G01*
X130525000Y-103025000D02*
G75*
G02*
X134525000Y-103025000I2000000J0D01*
G01*
X144525000Y-103025000D02*
G75*
G02*
X140525000Y-103025000I-2000000J0D01*
G01*
X140525000Y-103025000D02*
G75*
G02*
X144525000Y-103025000I2000000J0D01*
G01*
%TO.C,E1_3*%
X156525000Y-81025000D02*
G75*
G02*
X152525000Y-81025000I-2000000J0D01*
G01*
X152525000Y-81025000D02*
G75*
G02*
X156525000Y-81025000I2000000J0D01*
G01*
X166525000Y-81025000D02*
G75*
G02*
X162525000Y-81025000I-2000000J0D01*
G01*
X162525000Y-81025000D02*
G75*
G02*
X166525000Y-81025000I2000000J0D01*
G01*
%TO.C,E1_7*%
X156525000Y-103025000D02*
G75*
G02*
X152525000Y-103025000I-2000000J0D01*
G01*
X152525000Y-103025000D02*
G75*
G02*
X156525000Y-103025000I2000000J0D01*
G01*
X166525000Y-103025000D02*
G75*
G02*
X162525000Y-103025000I-2000000J0D01*
G01*
X162525000Y-103025000D02*
G75*
G02*
X166525000Y-103025000I2000000J0D01*
G01*
%TO.C,E1_4*%
X178525000Y-81025000D02*
G75*
G02*
X174525000Y-81025000I-2000000J0D01*
G01*
X174525000Y-81025000D02*
G75*
G02*
X178525000Y-81025000I2000000J0D01*
G01*
X188525000Y-81025000D02*
G75*
G02*
X184525000Y-81025000I-2000000J0D01*
G01*
X184525000Y-81025000D02*
G75*
G02*
X188525000Y-81025000I2000000J0D01*
G01*
%TO.C,E1_9*%
X112525000Y-125025000D02*
G75*
G02*
X108525000Y-125025000I-2000000J0D01*
G01*
X108525000Y-125025000D02*
G75*
G02*
X112525000Y-125025000I2000000J0D01*
G01*
X122525000Y-125025000D02*
G75*
G02*
X118525000Y-125025000I-2000000J0D01*
G01*
X118525000Y-125025000D02*
G75*
G02*
X122525000Y-125025000I2000000J0D01*
G01*
%TO.C,E1_5*%
X112525000Y-103025000D02*
G75*
G02*
X108525000Y-103025000I-2000000J0D01*
G01*
X108525000Y-103025000D02*
G75*
G02*
X112525000Y-103025000I2000000J0D01*
G01*
X122525000Y-103025000D02*
G75*
G02*
X118525000Y-103025000I-2000000J0D01*
G01*
X118525000Y-103025000D02*
G75*
G02*
X122525000Y-103025000I2000000J0D01*
G01*
%TO.C,E1_8*%
X178525000Y-103025000D02*
G75*
G02*
X174525000Y-103025000I-2000000J0D01*
G01*
X174525000Y-103025000D02*
G75*
G02*
X178525000Y-103025000I2000000J0D01*
G01*
X188525000Y-103025000D02*
G75*
G02*
X184525000Y-103025000I-2000000J0D01*
G01*
X184525000Y-103025000D02*
G75*
G02*
X188525000Y-103025000I2000000J0D01*
G01*
%TO.C,E1_10*%
X134525000Y-125025000D02*
G75*
G02*
X130525000Y-125025000I-2000000J0D01*
G01*
X130525000Y-125025000D02*
G75*
G02*
X134525000Y-125025000I2000000J0D01*
G01*
X144525000Y-125025000D02*
G75*
G02*
X140525000Y-125025000I-2000000J0D01*
G01*
X140525000Y-125025000D02*
G75*
G02*
X144525000Y-125025000I2000000J0D01*
G01*
%TO.C,E1_11*%
X156525000Y-125025000D02*
G75*
G02*
X152525000Y-125025000I-2000000J0D01*
G01*
X152525000Y-125025000D02*
G75*
G02*
X156525000Y-125025000I2000000J0D01*
G01*
X166525000Y-125025000D02*
G75*
G02*
X162525000Y-125025000I-2000000J0D01*
G01*
X162525000Y-125025000D02*
G75*
G02*
X166525000Y-125025000I2000000J0D01*
G01*
%TO.C,E1_12*%
X178525000Y-125025000D02*
G75*
G02*
X174525000Y-125025000I-2000000J0D01*
G01*
X174525000Y-125025000D02*
G75*
G02*
X178525000Y-125025000I2000000J0D01*
G01*
X188525000Y-125025000D02*
G75*
G02*
X184525000Y-125025000I-2000000J0D01*
G01*
X184525000Y-125025000D02*
G75*
G02*
X188525000Y-125025000I2000000J0D01*
G01*
%TD*%
M02*
