%TF.GenerationSoftware,KiCad,Pcbnew,10.0.0*%
%TF.CreationDate,2026-04-13T17:13:15-04:00*%
%TF.ProjectId,cortipod-electrode-panel,636f7274-6970-46f6-942d-656c65637472,rev?*%
%TF.SameCoordinates,Original*%
%TF.FileFunction,Profile,NP*%
%FSLAX46Y46*%
G04 Gerber Fmt 4.6, Leading zero omitted, Abs format (unit mm)*
G04 Created by KiCad (PCBNEW 10.0.0) date 2026-04-13 17:13:15*
%MOMM*%
%LPD*%
G01*
G04 APERTURE LIST*
%ADD10C,0.150000*%
G04 APERTURE END LIST*
D10*
X104500000Y-72000000D02*
X192500000Y-72000000D01*
X104500000Y-94000000D02*
X192500000Y-94000000D01*
X104500000Y-116000000D02*
X192500000Y-116000000D01*
X104500000Y-138000000D02*
X192500000Y-138000000D01*
X126500000Y-69000000D02*
X126500000Y-141000000D01*
X148500000Y-69000000D02*
X148500000Y-141000000D01*
X170500000Y-69000000D02*
X170500000Y-141000000D01*
X119214280Y-66359580D02*
X119166661Y-66407200D01*
X119166661Y-66407200D02*
X119023804Y-66454819D01*
X119023804Y-66454819D02*
X118928566Y-66454819D01*
X118928566Y-66454819D02*
X118785709Y-66407200D01*
X118785709Y-66407200D02*
X118690471Y-66311961D01*
X118690471Y-66311961D02*
X118642852Y-66216723D01*
X118642852Y-66216723D02*
X118595233Y-66026247D01*
X118595233Y-66026247D02*
X118595233Y-65883390D01*
X118595233Y-65883390D02*
X118642852Y-65692914D01*
X118642852Y-65692914D02*
X118690471Y-65597676D01*
X118690471Y-65597676D02*
X118785709Y-65502438D01*
X118785709Y-65502438D02*
X118928566Y-65454819D01*
X118928566Y-65454819D02*
X119023804Y-65454819D01*
X119023804Y-65454819D02*
X119166661Y-65502438D01*
X119166661Y-65502438D02*
X119214280Y-65550057D01*
X119785709Y-66454819D02*
X119690471Y-66407200D01*
X119690471Y-66407200D02*
X119642852Y-66359580D01*
X119642852Y-66359580D02*
X119595233Y-66264342D01*
X119595233Y-66264342D02*
X119595233Y-65978628D01*
X119595233Y-65978628D02*
X119642852Y-65883390D01*
X119642852Y-65883390D02*
X119690471Y-65835771D01*
X119690471Y-65835771D02*
X119785709Y-65788152D01*
X119785709Y-65788152D02*
X119928566Y-65788152D01*
X119928566Y-65788152D02*
X120023804Y-65835771D01*
X120023804Y-65835771D02*
X120071423Y-65883390D01*
X120071423Y-65883390D02*
X120119042Y-65978628D01*
X120119042Y-65978628D02*
X120119042Y-66264342D01*
X120119042Y-66264342D02*
X120071423Y-66359580D01*
X120071423Y-66359580D02*
X120023804Y-66407200D01*
X120023804Y-66407200D02*
X119928566Y-66454819D01*
X119928566Y-66454819D02*
X119785709Y-66454819D01*
X120547614Y-66454819D02*
X120547614Y-65788152D01*
X120547614Y-65978628D02*
X120595233Y-65883390D01*
X120595233Y-65883390D02*
X120642852Y-65835771D01*
X120642852Y-65835771D02*
X120738090Y-65788152D01*
X120738090Y-65788152D02*
X120833328Y-65788152D01*
X121023805Y-65788152D02*
X121404757Y-65788152D01*
X121166662Y-65454819D02*
X121166662Y-66311961D01*
X121166662Y-66311961D02*
X121214281Y-66407200D01*
X121214281Y-66407200D02*
X121309519Y-66454819D01*
X121309519Y-66454819D02*
X121404757Y-66454819D01*
X121738091Y-66454819D02*
X121738091Y-65788152D01*
X121738091Y-65454819D02*
X121690472Y-65502438D01*
X121690472Y-65502438D02*
X121738091Y-65550057D01*
X121738091Y-65550057D02*
X121785710Y-65502438D01*
X121785710Y-65502438D02*
X121738091Y-65454819D01*
X121738091Y-65454819D02*
X121738091Y-65550057D01*
X122214281Y-66454819D02*
X122214281Y-65454819D01*
X122214281Y-65454819D02*
X122595233Y-65454819D01*
X122595233Y-65454819D02*
X122690471Y-65502438D01*
X122690471Y-65502438D02*
X122738090Y-65550057D01*
X122738090Y-65550057D02*
X122785709Y-65645295D01*
X122785709Y-65645295D02*
X122785709Y-65788152D01*
X122785709Y-65788152D02*
X122738090Y-65883390D01*
X122738090Y-65883390D02*
X122690471Y-65931009D01*
X122690471Y-65931009D02*
X122595233Y-65978628D01*
X122595233Y-65978628D02*
X122214281Y-65978628D01*
X123357138Y-66454819D02*
X123261900Y-66407200D01*
X123261900Y-66407200D02*
X123214281Y-66359580D01*
X123214281Y-66359580D02*
X123166662Y-66264342D01*
X123166662Y-66264342D02*
X123166662Y-65978628D01*
X123166662Y-65978628D02*
X123214281Y-65883390D01*
X123214281Y-65883390D02*
X123261900Y-65835771D01*
X123261900Y-65835771D02*
X123357138Y-65788152D01*
X123357138Y-65788152D02*
X123499995Y-65788152D01*
X123499995Y-65788152D02*
X123595233Y-65835771D01*
X123595233Y-65835771D02*
X123642852Y-65883390D01*
X123642852Y-65883390D02*
X123690471Y-65978628D01*
X123690471Y-65978628D02*
X123690471Y-66264342D01*
X123690471Y-66264342D02*
X123642852Y-66359580D01*
X123642852Y-66359580D02*
X123595233Y-66407200D01*
X123595233Y-66407200D02*
X123499995Y-66454819D01*
X123499995Y-66454819D02*
X123357138Y-66454819D01*
X124547614Y-66454819D02*
X124547614Y-65454819D01*
X124547614Y-66407200D02*
X124452376Y-66454819D01*
X124452376Y-66454819D02*
X124261900Y-66454819D01*
X124261900Y-66454819D02*
X124166662Y-66407200D01*
X124166662Y-66407200D02*
X124119043Y-66359580D01*
X124119043Y-66359580D02*
X124071424Y-66264342D01*
X124071424Y-66264342D02*
X124071424Y-65978628D01*
X124071424Y-65978628D02*
X124119043Y-65883390D01*
X124119043Y-65883390D02*
X124166662Y-65835771D01*
X124166662Y-65835771D02*
X124261900Y-65788152D01*
X124261900Y-65788152D02*
X124452376Y-65788152D01*
X124452376Y-65788152D02*
X124547614Y-65835771D01*
X125785710Y-65931009D02*
X126119043Y-65931009D01*
X126261900Y-66454819D02*
X125785710Y-66454819D01*
X125785710Y-66454819D02*
X125785710Y-65454819D01*
X125785710Y-65454819D02*
X126261900Y-65454819D01*
X126833329Y-66454819D02*
X126738091Y-66407200D01*
X126738091Y-66407200D02*
X126690472Y-66311961D01*
X126690472Y-66311961D02*
X126690472Y-65454819D01*
X127595234Y-66407200D02*
X127499996Y-66454819D01*
X127499996Y-66454819D02*
X127309520Y-66454819D01*
X127309520Y-66454819D02*
X127214282Y-66407200D01*
X127214282Y-66407200D02*
X127166663Y-66311961D01*
X127166663Y-66311961D02*
X127166663Y-65931009D01*
X127166663Y-65931009D02*
X127214282Y-65835771D01*
X127214282Y-65835771D02*
X127309520Y-65788152D01*
X127309520Y-65788152D02*
X127499996Y-65788152D01*
X127499996Y-65788152D02*
X127595234Y-65835771D01*
X127595234Y-65835771D02*
X127642853Y-65931009D01*
X127642853Y-65931009D02*
X127642853Y-66026247D01*
X127642853Y-66026247D02*
X127166663Y-66121485D01*
X128499996Y-66407200D02*
X128404758Y-66454819D01*
X128404758Y-66454819D02*
X128214282Y-66454819D01*
X128214282Y-66454819D02*
X128119044Y-66407200D01*
X128119044Y-66407200D02*
X128071425Y-66359580D01*
X128071425Y-66359580D02*
X128023806Y-66264342D01*
X128023806Y-66264342D02*
X128023806Y-65978628D01*
X128023806Y-65978628D02*
X128071425Y-65883390D01*
X128071425Y-65883390D02*
X128119044Y-65835771D01*
X128119044Y-65835771D02*
X128214282Y-65788152D01*
X128214282Y-65788152D02*
X128404758Y-65788152D01*
X128404758Y-65788152D02*
X128499996Y-65835771D01*
X128785711Y-65788152D02*
X129166663Y-65788152D01*
X128928568Y-65454819D02*
X128928568Y-66311961D01*
X128928568Y-66311961D02*
X128976187Y-66407200D01*
X128976187Y-66407200D02*
X129071425Y-66454819D01*
X129071425Y-66454819D02*
X129166663Y-66454819D01*
X129499997Y-66454819D02*
X129499997Y-65788152D01*
X129499997Y-65978628D02*
X129547616Y-65883390D01*
X129547616Y-65883390D02*
X129595235Y-65835771D01*
X129595235Y-65835771D02*
X129690473Y-65788152D01*
X129690473Y-65788152D02*
X129785711Y-65788152D01*
X130261902Y-66454819D02*
X130166664Y-66407200D01*
X130166664Y-66407200D02*
X130119045Y-66359580D01*
X130119045Y-66359580D02*
X130071426Y-66264342D01*
X130071426Y-66264342D02*
X130071426Y-65978628D01*
X130071426Y-65978628D02*
X130119045Y-65883390D01*
X130119045Y-65883390D02*
X130166664Y-65835771D01*
X130166664Y-65835771D02*
X130261902Y-65788152D01*
X130261902Y-65788152D02*
X130404759Y-65788152D01*
X130404759Y-65788152D02*
X130499997Y-65835771D01*
X130499997Y-65835771D02*
X130547616Y-65883390D01*
X130547616Y-65883390D02*
X130595235Y-65978628D01*
X130595235Y-65978628D02*
X130595235Y-66264342D01*
X130595235Y-66264342D02*
X130547616Y-66359580D01*
X130547616Y-66359580D02*
X130499997Y-66407200D01*
X130499997Y-66407200D02*
X130404759Y-66454819D01*
X130404759Y-66454819D02*
X130261902Y-66454819D01*
X131452378Y-66454819D02*
X131452378Y-65454819D01*
X131452378Y-66407200D02*
X131357140Y-66454819D01*
X131357140Y-66454819D02*
X131166664Y-66454819D01*
X131166664Y-66454819D02*
X131071426Y-66407200D01*
X131071426Y-66407200D02*
X131023807Y-66359580D01*
X131023807Y-66359580D02*
X130976188Y-66264342D01*
X130976188Y-66264342D02*
X130976188Y-65978628D01*
X130976188Y-65978628D02*
X131023807Y-65883390D01*
X131023807Y-65883390D02*
X131071426Y-65835771D01*
X131071426Y-65835771D02*
X131166664Y-65788152D01*
X131166664Y-65788152D02*
X131357140Y-65788152D01*
X131357140Y-65788152D02*
X131452378Y-65835771D01*
X132309521Y-66407200D02*
X132214283Y-66454819D01*
X132214283Y-66454819D02*
X132023807Y-66454819D01*
X132023807Y-66454819D02*
X131928569Y-66407200D01*
X131928569Y-66407200D02*
X131880950Y-66311961D01*
X131880950Y-66311961D02*
X131880950Y-65931009D01*
X131880950Y-65931009D02*
X131928569Y-65835771D01*
X131928569Y-65835771D02*
X132023807Y-65788152D01*
X132023807Y-65788152D02*
X132214283Y-65788152D01*
X132214283Y-65788152D02*
X132309521Y-65835771D01*
X132309521Y-65835771D02*
X132357140Y-65931009D01*
X132357140Y-65931009D02*
X132357140Y-66026247D01*
X132357140Y-66026247D02*
X131880950Y-66121485D01*
X133547617Y-66454819D02*
X133547617Y-65454819D01*
X133547617Y-65454819D02*
X133928569Y-65454819D01*
X133928569Y-65454819D02*
X134023807Y-65502438D01*
X134023807Y-65502438D02*
X134071426Y-65550057D01*
X134071426Y-65550057D02*
X134119045Y-65645295D01*
X134119045Y-65645295D02*
X134119045Y-65788152D01*
X134119045Y-65788152D02*
X134071426Y-65883390D01*
X134071426Y-65883390D02*
X134023807Y-65931009D01*
X134023807Y-65931009D02*
X133928569Y-65978628D01*
X133928569Y-65978628D02*
X133547617Y-65978628D01*
X134976188Y-66454819D02*
X134976188Y-65931009D01*
X134976188Y-65931009D02*
X134928569Y-65835771D01*
X134928569Y-65835771D02*
X134833331Y-65788152D01*
X134833331Y-65788152D02*
X134642855Y-65788152D01*
X134642855Y-65788152D02*
X134547617Y-65835771D01*
X134976188Y-66407200D02*
X134880950Y-66454819D01*
X134880950Y-66454819D02*
X134642855Y-66454819D01*
X134642855Y-66454819D02*
X134547617Y-66407200D01*
X134547617Y-66407200D02*
X134499998Y-66311961D01*
X134499998Y-66311961D02*
X134499998Y-66216723D01*
X134499998Y-66216723D02*
X134547617Y-66121485D01*
X134547617Y-66121485D02*
X134642855Y-66073866D01*
X134642855Y-66073866D02*
X134880950Y-66073866D01*
X134880950Y-66073866D02*
X134976188Y-66026247D01*
X135452379Y-65788152D02*
X135452379Y-66454819D01*
X135452379Y-65883390D02*
X135499998Y-65835771D01*
X135499998Y-65835771D02*
X135595236Y-65788152D01*
X135595236Y-65788152D02*
X135738093Y-65788152D01*
X135738093Y-65788152D02*
X135833331Y-65835771D01*
X135833331Y-65835771D02*
X135880950Y-65931009D01*
X135880950Y-65931009D02*
X135880950Y-66454819D01*
X136738093Y-66407200D02*
X136642855Y-66454819D01*
X136642855Y-66454819D02*
X136452379Y-66454819D01*
X136452379Y-66454819D02*
X136357141Y-66407200D01*
X136357141Y-66407200D02*
X136309522Y-66311961D01*
X136309522Y-66311961D02*
X136309522Y-65931009D01*
X136309522Y-65931009D02*
X136357141Y-65835771D01*
X136357141Y-65835771D02*
X136452379Y-65788152D01*
X136452379Y-65788152D02*
X136642855Y-65788152D01*
X136642855Y-65788152D02*
X136738093Y-65835771D01*
X136738093Y-65835771D02*
X136785712Y-65931009D01*
X136785712Y-65931009D02*
X136785712Y-66026247D01*
X136785712Y-66026247D02*
X136309522Y-66121485D01*
X137357141Y-66454819D02*
X137261903Y-66407200D01*
X137261903Y-66407200D02*
X137214284Y-66311961D01*
X137214284Y-66311961D02*
X137214284Y-65454819D01*
X138928570Y-65788152D02*
X138928570Y-66454819D01*
X138690475Y-65407200D02*
X138452380Y-66121485D01*
X138452380Y-66121485D02*
X139071427Y-66121485D01*
X139357142Y-66454819D02*
X139880951Y-65788152D01*
X139357142Y-65788152D02*
X139880951Y-66454819D01*
X140166666Y-65454819D02*
X140785713Y-65454819D01*
X140785713Y-65454819D02*
X140452380Y-65835771D01*
X140452380Y-65835771D02*
X140595237Y-65835771D01*
X140595237Y-65835771D02*
X140690475Y-65883390D01*
X140690475Y-65883390D02*
X140738094Y-65931009D01*
X140738094Y-65931009D02*
X140785713Y-66026247D01*
X140785713Y-66026247D02*
X140785713Y-66264342D01*
X140785713Y-66264342D02*
X140738094Y-66359580D01*
X140738094Y-66359580D02*
X140690475Y-66407200D01*
X140690475Y-66407200D02*
X140595237Y-66454819D01*
X140595237Y-66454819D02*
X140309523Y-66454819D01*
X140309523Y-66454819D02*
X140214285Y-66407200D01*
X140214285Y-66407200D02*
X140166666Y-66359580D01*
X141976190Y-65931009D02*
X142738095Y-65931009D01*
X142738095Y-66216723D02*
X141976190Y-66216723D01*
X144499999Y-66454819D02*
X143928571Y-66454819D01*
X144214285Y-66454819D02*
X144214285Y-65454819D01*
X144214285Y-65454819D02*
X144119047Y-65597676D01*
X144119047Y-65597676D02*
X144023809Y-65692914D01*
X144023809Y-65692914D02*
X143928571Y-65740533D01*
X144880952Y-65550057D02*
X144928571Y-65502438D01*
X144928571Y-65502438D02*
X145023809Y-65454819D01*
X145023809Y-65454819D02*
X145261904Y-65454819D01*
X145261904Y-65454819D02*
X145357142Y-65502438D01*
X145357142Y-65502438D02*
X145404761Y-65550057D01*
X145404761Y-65550057D02*
X145452380Y-65645295D01*
X145452380Y-65645295D02*
X145452380Y-65740533D01*
X145452380Y-65740533D02*
X145404761Y-65883390D01*
X145404761Y-65883390D02*
X144833333Y-66454819D01*
X144833333Y-66454819D02*
X145452380Y-66454819D01*
X147071428Y-66407200D02*
X146976190Y-66454819D01*
X146976190Y-66454819D02*
X146785714Y-66454819D01*
X146785714Y-66454819D02*
X146690476Y-66407200D01*
X146690476Y-66407200D02*
X146642857Y-66359580D01*
X146642857Y-66359580D02*
X146595238Y-66264342D01*
X146595238Y-66264342D02*
X146595238Y-65978628D01*
X146595238Y-65978628D02*
X146642857Y-65883390D01*
X146642857Y-65883390D02*
X146690476Y-65835771D01*
X146690476Y-65835771D02*
X146785714Y-65788152D01*
X146785714Y-65788152D02*
X146976190Y-65788152D01*
X146976190Y-65788152D02*
X147071428Y-65835771D01*
X147880952Y-66407200D02*
X147785714Y-66454819D01*
X147785714Y-66454819D02*
X147595238Y-66454819D01*
X147595238Y-66454819D02*
X147500000Y-66407200D01*
X147500000Y-66407200D02*
X147452381Y-66311961D01*
X147452381Y-66311961D02*
X147452381Y-65931009D01*
X147452381Y-65931009D02*
X147500000Y-65835771D01*
X147500000Y-65835771D02*
X147595238Y-65788152D01*
X147595238Y-65788152D02*
X147785714Y-65788152D01*
X147785714Y-65788152D02*
X147880952Y-65835771D01*
X147880952Y-65835771D02*
X147928571Y-65931009D01*
X147928571Y-65931009D02*
X147928571Y-66026247D01*
X147928571Y-66026247D02*
X147452381Y-66121485D01*
X148500000Y-66454819D02*
X148404762Y-66407200D01*
X148404762Y-66407200D02*
X148357143Y-66311961D01*
X148357143Y-66311961D02*
X148357143Y-65454819D01*
X149023810Y-66454819D02*
X148928572Y-66407200D01*
X148928572Y-66407200D02*
X148880953Y-66311961D01*
X148880953Y-66311961D02*
X148880953Y-65454819D01*
X149357144Y-66407200D02*
X149452382Y-66454819D01*
X149452382Y-66454819D02*
X149642858Y-66454819D01*
X149642858Y-66454819D02*
X149738096Y-66407200D01*
X149738096Y-66407200D02*
X149785715Y-66311961D01*
X149785715Y-66311961D02*
X149785715Y-66264342D01*
X149785715Y-66264342D02*
X149738096Y-66169104D01*
X149738096Y-66169104D02*
X149642858Y-66121485D01*
X149642858Y-66121485D02*
X149500001Y-66121485D01*
X149500001Y-66121485D02*
X149404763Y-66073866D01*
X149404763Y-66073866D02*
X149357144Y-65978628D01*
X149357144Y-65978628D02*
X149357144Y-65931009D01*
X149357144Y-65931009D02*
X149404763Y-65835771D01*
X149404763Y-65835771D02*
X149500001Y-65788152D01*
X149500001Y-65788152D02*
X149642858Y-65788152D01*
X149642858Y-65788152D02*
X149738096Y-65835771D01*
X150976192Y-66073866D02*
X151738097Y-66073866D01*
X151357144Y-66454819D02*
X151357144Y-65692914D01*
X152976192Y-66454819D02*
X152976192Y-65788152D01*
X152976192Y-65978628D02*
X153023811Y-65883390D01*
X153023811Y-65883390D02*
X153071430Y-65835771D01*
X153071430Y-65835771D02*
X153166668Y-65788152D01*
X153166668Y-65788152D02*
X153261906Y-65788152D01*
X154023811Y-66454819D02*
X154023811Y-65931009D01*
X154023811Y-65931009D02*
X153976192Y-65835771D01*
X153976192Y-65835771D02*
X153880954Y-65788152D01*
X153880954Y-65788152D02*
X153690478Y-65788152D01*
X153690478Y-65788152D02*
X153595240Y-65835771D01*
X154023811Y-66407200D02*
X153928573Y-66454819D01*
X153928573Y-66454819D02*
X153690478Y-66454819D01*
X153690478Y-66454819D02*
X153595240Y-66407200D01*
X153595240Y-66407200D02*
X153547621Y-66311961D01*
X153547621Y-66311961D02*
X153547621Y-66216723D01*
X153547621Y-66216723D02*
X153595240Y-66121485D01*
X153595240Y-66121485D02*
X153690478Y-66073866D01*
X153690478Y-66073866D02*
X153928573Y-66073866D01*
X153928573Y-66073866D02*
X154023811Y-66026247D01*
X154500002Y-66454819D02*
X154500002Y-65788152D01*
X154500002Y-65454819D02*
X154452383Y-65502438D01*
X154452383Y-65502438D02*
X154500002Y-65550057D01*
X154500002Y-65550057D02*
X154547621Y-65502438D01*
X154547621Y-65502438D02*
X154500002Y-65454819D01*
X154500002Y-65454819D02*
X154500002Y-65550057D01*
X155119049Y-66454819D02*
X155023811Y-66407200D01*
X155023811Y-66407200D02*
X154976192Y-66311961D01*
X154976192Y-66311961D02*
X154976192Y-65454819D01*
X155452383Y-66407200D02*
X155547621Y-66454819D01*
X155547621Y-66454819D02*
X155738097Y-66454819D01*
X155738097Y-66454819D02*
X155833335Y-66407200D01*
X155833335Y-66407200D02*
X155880954Y-66311961D01*
X155880954Y-66311961D02*
X155880954Y-66264342D01*
X155880954Y-66264342D02*
X155833335Y-66169104D01*
X155833335Y-66169104D02*
X155738097Y-66121485D01*
X155738097Y-66121485D02*
X155595240Y-66121485D01*
X155595240Y-66121485D02*
X155500002Y-66073866D01*
X155500002Y-66073866D02*
X155452383Y-65978628D01*
X155452383Y-65978628D02*
X155452383Y-65931009D01*
X155452383Y-65931009D02*
X155500002Y-65835771D01*
X155500002Y-65835771D02*
X155595240Y-65788152D01*
X155595240Y-65788152D02*
X155738097Y-65788152D01*
X155738097Y-65788152D02*
X155833335Y-65835771D01*
X157071431Y-66073866D02*
X157833336Y-66073866D01*
X158928574Y-65454819D02*
X159261907Y-66454819D01*
X159261907Y-66454819D02*
X159595240Y-65454819D01*
X159928574Y-66073866D02*
X160690479Y-66073866D01*
X161119050Y-66407200D02*
X161261907Y-66454819D01*
X161261907Y-66454819D02*
X161500002Y-66454819D01*
X161500002Y-66454819D02*
X161595240Y-66407200D01*
X161595240Y-66407200D02*
X161642859Y-66359580D01*
X161642859Y-66359580D02*
X161690478Y-66264342D01*
X161690478Y-66264342D02*
X161690478Y-66169104D01*
X161690478Y-66169104D02*
X161642859Y-66073866D01*
X161642859Y-66073866D02*
X161595240Y-66026247D01*
X161595240Y-66026247D02*
X161500002Y-65978628D01*
X161500002Y-65978628D02*
X161309526Y-65931009D01*
X161309526Y-65931009D02*
X161214288Y-65883390D01*
X161214288Y-65883390D02*
X161166669Y-65835771D01*
X161166669Y-65835771D02*
X161119050Y-65740533D01*
X161119050Y-65740533D02*
X161119050Y-65645295D01*
X161119050Y-65645295D02*
X161166669Y-65550057D01*
X161166669Y-65550057D02*
X161214288Y-65502438D01*
X161214288Y-65502438D02*
X161309526Y-65454819D01*
X161309526Y-65454819D02*
X161547621Y-65454819D01*
X161547621Y-65454819D02*
X161690478Y-65502438D01*
X162690478Y-66359580D02*
X162642859Y-66407200D01*
X162642859Y-66407200D02*
X162500002Y-66454819D01*
X162500002Y-66454819D02*
X162404764Y-66454819D01*
X162404764Y-66454819D02*
X162261907Y-66407200D01*
X162261907Y-66407200D02*
X162166669Y-66311961D01*
X162166669Y-66311961D02*
X162119050Y-66216723D01*
X162119050Y-66216723D02*
X162071431Y-66026247D01*
X162071431Y-66026247D02*
X162071431Y-65883390D01*
X162071431Y-65883390D02*
X162119050Y-65692914D01*
X162119050Y-65692914D02*
X162166669Y-65597676D01*
X162166669Y-65597676D02*
X162261907Y-65502438D01*
X162261907Y-65502438D02*
X162404764Y-65454819D01*
X162404764Y-65454819D02*
X162500002Y-65454819D01*
X162500002Y-65454819D02*
X162642859Y-65502438D01*
X162642859Y-65502438D02*
X162690478Y-65550057D01*
X163309526Y-65454819D02*
X163500002Y-65454819D01*
X163500002Y-65454819D02*
X163595240Y-65502438D01*
X163595240Y-65502438D02*
X163690478Y-65597676D01*
X163690478Y-65597676D02*
X163738097Y-65788152D01*
X163738097Y-65788152D02*
X163738097Y-66121485D01*
X163738097Y-66121485D02*
X163690478Y-66311961D01*
X163690478Y-66311961D02*
X163595240Y-66407200D01*
X163595240Y-66407200D02*
X163500002Y-66454819D01*
X163500002Y-66454819D02*
X163309526Y-66454819D01*
X163309526Y-66454819D02*
X163214288Y-66407200D01*
X163214288Y-66407200D02*
X163119050Y-66311961D01*
X163119050Y-66311961D02*
X163071431Y-66121485D01*
X163071431Y-66121485D02*
X163071431Y-65788152D01*
X163071431Y-65788152D02*
X163119050Y-65597676D01*
X163119050Y-65597676D02*
X163214288Y-65502438D01*
X163214288Y-65502438D02*
X163309526Y-65454819D01*
X164738097Y-66454819D02*
X164404764Y-65978628D01*
X164166669Y-66454819D02*
X164166669Y-65454819D01*
X164166669Y-65454819D02*
X164547621Y-65454819D01*
X164547621Y-65454819D02*
X164642859Y-65502438D01*
X164642859Y-65502438D02*
X164690478Y-65550057D01*
X164690478Y-65550057D02*
X164738097Y-65645295D01*
X164738097Y-65645295D02*
X164738097Y-65788152D01*
X164738097Y-65788152D02*
X164690478Y-65883390D01*
X164690478Y-65883390D02*
X164642859Y-65931009D01*
X164642859Y-65931009D02*
X164547621Y-65978628D01*
X164547621Y-65978628D02*
X164166669Y-65978628D01*
X165166669Y-65931009D02*
X165500002Y-65931009D01*
X165642859Y-66454819D02*
X165166669Y-66454819D01*
X165166669Y-66454819D02*
X165166669Y-65454819D01*
X165166669Y-65454819D02*
X165642859Y-65454819D01*
X167261907Y-66454819D02*
X167261907Y-65931009D01*
X167261907Y-65931009D02*
X167214288Y-65835771D01*
X167214288Y-65835771D02*
X167119050Y-65788152D01*
X167119050Y-65788152D02*
X166928574Y-65788152D01*
X166928574Y-65788152D02*
X166833336Y-65835771D01*
X167261907Y-66407200D02*
X167166669Y-66454819D01*
X167166669Y-66454819D02*
X166928574Y-66454819D01*
X166928574Y-66454819D02*
X166833336Y-66407200D01*
X166833336Y-66407200D02*
X166785717Y-66311961D01*
X166785717Y-66311961D02*
X166785717Y-66216723D01*
X166785717Y-66216723D02*
X166833336Y-66121485D01*
X166833336Y-66121485D02*
X166928574Y-66073866D01*
X166928574Y-66073866D02*
X167166669Y-66073866D01*
X167166669Y-66073866D02*
X167261907Y-66026247D01*
X167595241Y-65788152D02*
X167976193Y-65788152D01*
X167738098Y-65454819D02*
X167738098Y-66311961D01*
X167738098Y-66311961D02*
X167785717Y-66407200D01*
X167785717Y-66407200D02*
X167880955Y-66454819D01*
X167880955Y-66454819D02*
X167976193Y-66454819D01*
X169071432Y-66454819D02*
X169071432Y-65788152D01*
X169071432Y-65883390D02*
X169119051Y-65835771D01*
X169119051Y-65835771D02*
X169214289Y-65788152D01*
X169214289Y-65788152D02*
X169357146Y-65788152D01*
X169357146Y-65788152D02*
X169452384Y-65835771D01*
X169452384Y-65835771D02*
X169500003Y-65931009D01*
X169500003Y-65931009D02*
X169500003Y-66454819D01*
X169500003Y-65931009D02*
X169547622Y-65835771D01*
X169547622Y-65835771D02*
X169642860Y-65788152D01*
X169642860Y-65788152D02*
X169785717Y-65788152D01*
X169785717Y-65788152D02*
X169880956Y-65835771D01*
X169880956Y-65835771D02*
X169928575Y-65931009D01*
X169928575Y-65931009D02*
X169928575Y-66454819D01*
X170833336Y-66454819D02*
X170833336Y-65931009D01*
X170833336Y-65931009D02*
X170785717Y-65835771D01*
X170785717Y-65835771D02*
X170690479Y-65788152D01*
X170690479Y-65788152D02*
X170500003Y-65788152D01*
X170500003Y-65788152D02*
X170404765Y-65835771D01*
X170833336Y-66407200D02*
X170738098Y-66454819D01*
X170738098Y-66454819D02*
X170500003Y-66454819D01*
X170500003Y-66454819D02*
X170404765Y-66407200D01*
X170404765Y-66407200D02*
X170357146Y-66311961D01*
X170357146Y-66311961D02*
X170357146Y-66216723D01*
X170357146Y-66216723D02*
X170404765Y-66121485D01*
X170404765Y-66121485D02*
X170500003Y-66073866D01*
X170500003Y-66073866D02*
X170738098Y-66073866D01*
X170738098Y-66073866D02*
X170833336Y-66026247D01*
X171309527Y-66454819D02*
X171309527Y-65788152D01*
X171309527Y-65978628D02*
X171357146Y-65883390D01*
X171357146Y-65883390D02*
X171404765Y-65835771D01*
X171404765Y-65835771D02*
X171500003Y-65788152D01*
X171500003Y-65788152D02*
X171595241Y-65788152D01*
X171928575Y-66454819D02*
X171928575Y-65454819D01*
X172023813Y-66073866D02*
X172309527Y-66454819D01*
X172309527Y-65788152D02*
X171928575Y-66169104D01*
X173119051Y-66407200D02*
X173023813Y-66454819D01*
X173023813Y-66454819D02*
X172833337Y-66454819D01*
X172833337Y-66454819D02*
X172738099Y-66407200D01*
X172738099Y-66407200D02*
X172690480Y-66311961D01*
X172690480Y-66311961D02*
X172690480Y-65931009D01*
X172690480Y-65931009D02*
X172738099Y-65835771D01*
X172738099Y-65835771D02*
X172833337Y-65788152D01*
X172833337Y-65788152D02*
X173023813Y-65788152D01*
X173023813Y-65788152D02*
X173119051Y-65835771D01*
X173119051Y-65835771D02*
X173166670Y-65931009D01*
X173166670Y-65931009D02*
X173166670Y-66026247D01*
X173166670Y-66026247D02*
X172690480Y-66121485D01*
X174023813Y-66454819D02*
X174023813Y-65454819D01*
X174023813Y-66407200D02*
X173928575Y-66454819D01*
X173928575Y-66454819D02*
X173738099Y-66454819D01*
X173738099Y-66454819D02*
X173642861Y-66407200D01*
X173642861Y-66407200D02*
X173595242Y-66359580D01*
X173595242Y-66359580D02*
X173547623Y-66264342D01*
X173547623Y-66264342D02*
X173547623Y-65978628D01*
X173547623Y-65978628D02*
X173595242Y-65883390D01*
X173595242Y-65883390D02*
X173642861Y-65835771D01*
X173642861Y-65835771D02*
X173738099Y-65788152D01*
X173738099Y-65788152D02*
X173928575Y-65788152D01*
X173928575Y-65788152D02*
X174023813Y-65835771D01*
X175404766Y-66454819D02*
X175309528Y-66407200D01*
X175309528Y-66407200D02*
X175261909Y-66311961D01*
X175261909Y-66311961D02*
X175261909Y-65454819D01*
X175785719Y-66454819D02*
X175785719Y-65788152D01*
X175785719Y-65454819D02*
X175738100Y-65502438D01*
X175738100Y-65502438D02*
X175785719Y-65550057D01*
X175785719Y-65550057D02*
X175833338Y-65502438D01*
X175833338Y-65502438D02*
X175785719Y-65454819D01*
X175785719Y-65454819D02*
X175785719Y-65550057D01*
X176261909Y-65788152D02*
X176261909Y-66454819D01*
X176261909Y-65883390D02*
X176309528Y-65835771D01*
X176309528Y-65835771D02*
X176404766Y-65788152D01*
X176404766Y-65788152D02*
X176547623Y-65788152D01*
X176547623Y-65788152D02*
X176642861Y-65835771D01*
X176642861Y-65835771D02*
X176690480Y-65931009D01*
X176690480Y-65931009D02*
X176690480Y-66454819D01*
X177547623Y-66407200D02*
X177452385Y-66454819D01*
X177452385Y-66454819D02*
X177261909Y-66454819D01*
X177261909Y-66454819D02*
X177166671Y-66407200D01*
X177166671Y-66407200D02*
X177119052Y-66311961D01*
X177119052Y-66311961D02*
X177119052Y-65931009D01*
X177119052Y-65931009D02*
X177166671Y-65835771D01*
X177166671Y-65835771D02*
X177261909Y-65788152D01*
X177261909Y-65788152D02*
X177452385Y-65788152D01*
X177452385Y-65788152D02*
X177547623Y-65835771D01*
X177547623Y-65835771D02*
X177595242Y-65931009D01*
X177595242Y-65931009D02*
X177595242Y-66026247D01*
X177595242Y-66026247D02*
X177119052Y-66121485D01*
X177976195Y-66407200D02*
X178071433Y-66454819D01*
X178071433Y-66454819D02*
X178261909Y-66454819D01*
X178261909Y-66454819D02*
X178357147Y-66407200D01*
X178357147Y-66407200D02*
X178404766Y-66311961D01*
X178404766Y-66311961D02*
X178404766Y-66264342D01*
X178404766Y-66264342D02*
X178357147Y-66169104D01*
X178357147Y-66169104D02*
X178261909Y-66121485D01*
X178261909Y-66121485D02*
X178119052Y-66121485D01*
X178119052Y-66121485D02*
X178023814Y-66073866D01*
X178023814Y-66073866D02*
X177976195Y-65978628D01*
X177976195Y-65978628D02*
X177976195Y-65931009D01*
X177976195Y-65931009D02*
X178023814Y-65835771D01*
X178023814Y-65835771D02*
X178119052Y-65788152D01*
X178119052Y-65788152D02*
X178261909Y-65788152D01*
X178261909Y-65788152D02*
X178357147Y-65835771D01*
M02*
