%TF.GenerationSoftware,KiCad,Pcbnew,10.0.0*%
%TF.CreationDate,2026-04-13T17:13:15-04:00*%
%TF.ProjectId,cortipod-electrode-panel,636f7274-6970-46f6-942d-656c65637472,rev?*%
%TF.SameCoordinates,Original*%
%TF.FileFunction,Legend,Top*%
%TF.FilePolarity,Positive*%
%FSLAX46Y46*%
G04 Gerber Fmt 4.6, Leading zero omitted, Abs format (unit mm)*
G04 Created by KiCad (PCBNEW 10.0.0) date 2026-04-13 17:13:15*
%MOMM*%
%LPD*%
G01*
G04 APERTURE LIST*
%ADD10C,0.080000*%
G04 APERTURE END LIST*
D10*
X156060714Y-78252149D02*
X156060714Y-77752149D01*
X156060714Y-77752149D02*
X155894047Y-78109292D01*
X155894047Y-78109292D02*
X155727381Y-77752149D01*
X155727381Y-77752149D02*
X155727381Y-78252149D01*
X155489285Y-78252149D02*
X155489285Y-77752149D01*
X155251190Y-78252149D02*
X155251190Y-77752149D01*
X155251190Y-77752149D02*
X155060714Y-77752149D01*
X155060714Y-77752149D02*
X155013095Y-77775959D01*
X155013095Y-77775959D02*
X154989285Y-77799768D01*
X154989285Y-77799768D02*
X154965476Y-77847387D01*
X154965476Y-77847387D02*
X154965476Y-77918816D01*
X154965476Y-77918816D02*
X154989285Y-77966435D01*
X154989285Y-77966435D02*
X155013095Y-77990244D01*
X155013095Y-77990244D02*
X155060714Y-78014054D01*
X155060714Y-78014054D02*
X155251190Y-78014054D01*
X155596428Y-84204530D02*
X155620237Y-84228340D01*
X155620237Y-84228340D02*
X155691666Y-84252149D01*
X155691666Y-84252149D02*
X155739285Y-84252149D01*
X155739285Y-84252149D02*
X155810713Y-84228340D01*
X155810713Y-84228340D02*
X155858332Y-84180720D01*
X155858332Y-84180720D02*
X155882142Y-84133101D01*
X155882142Y-84133101D02*
X155905951Y-84037863D01*
X155905951Y-84037863D02*
X155905951Y-83966435D01*
X155905951Y-83966435D02*
X155882142Y-83871197D01*
X155882142Y-83871197D02*
X155858332Y-83823578D01*
X155858332Y-83823578D02*
X155810713Y-83775959D01*
X155810713Y-83775959D02*
X155739285Y-83752149D01*
X155739285Y-83752149D02*
X155691666Y-83752149D01*
X155691666Y-83752149D02*
X155620237Y-83775959D01*
X155620237Y-83775959D02*
X155596428Y-83799768D01*
X155382142Y-83990244D02*
X155215475Y-83990244D01*
X155144047Y-84252149D02*
X155382142Y-84252149D01*
X155382142Y-84252149D02*
X155382142Y-83752149D01*
X155382142Y-83752149D02*
X155144047Y-83752149D01*
X164036904Y-78252149D02*
X164036904Y-77752149D01*
X164036904Y-77752149D02*
X163751190Y-78252149D01*
X163751190Y-78252149D02*
X163751190Y-77752149D01*
X163513094Y-78252149D02*
X163513094Y-77752149D01*
X163274999Y-78252149D02*
X163274999Y-77752149D01*
X163274999Y-77752149D02*
X163084523Y-77752149D01*
X163084523Y-77752149D02*
X163036904Y-77775959D01*
X163036904Y-77775959D02*
X163013094Y-77799768D01*
X163013094Y-77799768D02*
X162989285Y-77847387D01*
X162989285Y-77847387D02*
X162989285Y-77918816D01*
X162989285Y-77918816D02*
X163013094Y-77966435D01*
X163013094Y-77966435D02*
X163036904Y-77990244D01*
X163036904Y-77990244D02*
X163084523Y-78014054D01*
X163084523Y-78014054D02*
X163274999Y-78014054D01*
X163596428Y-84252149D02*
X163763094Y-84014054D01*
X163882142Y-84252149D02*
X163882142Y-83752149D01*
X163882142Y-83752149D02*
X163691666Y-83752149D01*
X163691666Y-83752149D02*
X163644047Y-83775959D01*
X163644047Y-83775959D02*
X163620237Y-83799768D01*
X163620237Y-83799768D02*
X163596428Y-83847387D01*
X163596428Y-83847387D02*
X163596428Y-83918816D01*
X163596428Y-83918816D02*
X163620237Y-83966435D01*
X163620237Y-83966435D02*
X163644047Y-83990244D01*
X163644047Y-83990244D02*
X163691666Y-84014054D01*
X163691666Y-84014054D02*
X163882142Y-84014054D01*
X163382142Y-83990244D02*
X163215475Y-83990244D01*
X163144047Y-84252149D02*
X163382142Y-84252149D01*
X163382142Y-84252149D02*
X163382142Y-83752149D01*
X163382142Y-83752149D02*
X163144047Y-83752149D01*
X156060714Y-100252149D02*
X156060714Y-99752149D01*
X156060714Y-99752149D02*
X155894047Y-100109292D01*
X155894047Y-100109292D02*
X155727381Y-99752149D01*
X155727381Y-99752149D02*
X155727381Y-100252149D01*
X155489285Y-100252149D02*
X155489285Y-99752149D01*
X155251190Y-100252149D02*
X155251190Y-99752149D01*
X155251190Y-99752149D02*
X155060714Y-99752149D01*
X155060714Y-99752149D02*
X155013095Y-99775959D01*
X155013095Y-99775959D02*
X154989285Y-99799768D01*
X154989285Y-99799768D02*
X154965476Y-99847387D01*
X154965476Y-99847387D02*
X154965476Y-99918816D01*
X154965476Y-99918816D02*
X154989285Y-99966435D01*
X154989285Y-99966435D02*
X155013095Y-99990244D01*
X155013095Y-99990244D02*
X155060714Y-100014054D01*
X155060714Y-100014054D02*
X155251190Y-100014054D01*
X155596428Y-106204530D02*
X155620237Y-106228340D01*
X155620237Y-106228340D02*
X155691666Y-106252149D01*
X155691666Y-106252149D02*
X155739285Y-106252149D01*
X155739285Y-106252149D02*
X155810713Y-106228340D01*
X155810713Y-106228340D02*
X155858332Y-106180720D01*
X155858332Y-106180720D02*
X155882142Y-106133101D01*
X155882142Y-106133101D02*
X155905951Y-106037863D01*
X155905951Y-106037863D02*
X155905951Y-105966435D01*
X155905951Y-105966435D02*
X155882142Y-105871197D01*
X155882142Y-105871197D02*
X155858332Y-105823578D01*
X155858332Y-105823578D02*
X155810713Y-105775959D01*
X155810713Y-105775959D02*
X155739285Y-105752149D01*
X155739285Y-105752149D02*
X155691666Y-105752149D01*
X155691666Y-105752149D02*
X155620237Y-105775959D01*
X155620237Y-105775959D02*
X155596428Y-105799768D01*
X155382142Y-105990244D02*
X155215475Y-105990244D01*
X155144047Y-106252149D02*
X155382142Y-106252149D01*
X155382142Y-106252149D02*
X155382142Y-105752149D01*
X155382142Y-105752149D02*
X155144047Y-105752149D01*
X164036904Y-100252149D02*
X164036904Y-99752149D01*
X164036904Y-99752149D02*
X163751190Y-100252149D01*
X163751190Y-100252149D02*
X163751190Y-99752149D01*
X163513094Y-100252149D02*
X163513094Y-99752149D01*
X163274999Y-100252149D02*
X163274999Y-99752149D01*
X163274999Y-99752149D02*
X163084523Y-99752149D01*
X163084523Y-99752149D02*
X163036904Y-99775959D01*
X163036904Y-99775959D02*
X163013094Y-99799768D01*
X163013094Y-99799768D02*
X162989285Y-99847387D01*
X162989285Y-99847387D02*
X162989285Y-99918816D01*
X162989285Y-99918816D02*
X163013094Y-99966435D01*
X163013094Y-99966435D02*
X163036904Y-99990244D01*
X163036904Y-99990244D02*
X163084523Y-100014054D01*
X163084523Y-100014054D02*
X163274999Y-100014054D01*
X163596428Y-106252149D02*
X163763094Y-106014054D01*
X163882142Y-106252149D02*
X163882142Y-105752149D01*
X163882142Y-105752149D02*
X163691666Y-105752149D01*
X163691666Y-105752149D02*
X163644047Y-105775959D01*
X163644047Y-105775959D02*
X163620237Y-105799768D01*
X163620237Y-105799768D02*
X163596428Y-105847387D01*
X163596428Y-105847387D02*
X163596428Y-105918816D01*
X163596428Y-105918816D02*
X163620237Y-105966435D01*
X163620237Y-105966435D02*
X163644047Y-105990244D01*
X163644047Y-105990244D02*
X163691666Y-106014054D01*
X163691666Y-106014054D02*
X163882142Y-106014054D01*
X163382142Y-105990244D02*
X163215475Y-105990244D01*
X163144047Y-106252149D02*
X163382142Y-106252149D01*
X163382142Y-106252149D02*
X163382142Y-105752149D01*
X163382142Y-105752149D02*
X163144047Y-105752149D01*
X178060714Y-78252149D02*
X178060714Y-77752149D01*
X178060714Y-77752149D02*
X177894047Y-78109292D01*
X177894047Y-78109292D02*
X177727381Y-77752149D01*
X177727381Y-77752149D02*
X177727381Y-78252149D01*
X177489285Y-78252149D02*
X177489285Y-77752149D01*
X177251190Y-78252149D02*
X177251190Y-77752149D01*
X177251190Y-77752149D02*
X177060714Y-77752149D01*
X177060714Y-77752149D02*
X177013095Y-77775959D01*
X177013095Y-77775959D02*
X176989285Y-77799768D01*
X176989285Y-77799768D02*
X176965476Y-77847387D01*
X176965476Y-77847387D02*
X176965476Y-77918816D01*
X176965476Y-77918816D02*
X176989285Y-77966435D01*
X176989285Y-77966435D02*
X177013095Y-77990244D01*
X177013095Y-77990244D02*
X177060714Y-78014054D01*
X177060714Y-78014054D02*
X177251190Y-78014054D01*
X177596428Y-84204530D02*
X177620237Y-84228340D01*
X177620237Y-84228340D02*
X177691666Y-84252149D01*
X177691666Y-84252149D02*
X177739285Y-84252149D01*
X177739285Y-84252149D02*
X177810713Y-84228340D01*
X177810713Y-84228340D02*
X177858332Y-84180720D01*
X177858332Y-84180720D02*
X177882142Y-84133101D01*
X177882142Y-84133101D02*
X177905951Y-84037863D01*
X177905951Y-84037863D02*
X177905951Y-83966435D01*
X177905951Y-83966435D02*
X177882142Y-83871197D01*
X177882142Y-83871197D02*
X177858332Y-83823578D01*
X177858332Y-83823578D02*
X177810713Y-83775959D01*
X177810713Y-83775959D02*
X177739285Y-83752149D01*
X177739285Y-83752149D02*
X177691666Y-83752149D01*
X177691666Y-83752149D02*
X177620237Y-83775959D01*
X177620237Y-83775959D02*
X177596428Y-83799768D01*
X177382142Y-83990244D02*
X177215475Y-83990244D01*
X177144047Y-84252149D02*
X177382142Y-84252149D01*
X177382142Y-84252149D02*
X177382142Y-83752149D01*
X177382142Y-83752149D02*
X177144047Y-83752149D01*
X186036904Y-78252149D02*
X186036904Y-77752149D01*
X186036904Y-77752149D02*
X185751190Y-78252149D01*
X185751190Y-78252149D02*
X185751190Y-77752149D01*
X185513094Y-78252149D02*
X185513094Y-77752149D01*
X185274999Y-78252149D02*
X185274999Y-77752149D01*
X185274999Y-77752149D02*
X185084523Y-77752149D01*
X185084523Y-77752149D02*
X185036904Y-77775959D01*
X185036904Y-77775959D02*
X185013094Y-77799768D01*
X185013094Y-77799768D02*
X184989285Y-77847387D01*
X184989285Y-77847387D02*
X184989285Y-77918816D01*
X184989285Y-77918816D02*
X185013094Y-77966435D01*
X185013094Y-77966435D02*
X185036904Y-77990244D01*
X185036904Y-77990244D02*
X185084523Y-78014054D01*
X185084523Y-78014054D02*
X185274999Y-78014054D01*
X185596428Y-84252149D02*
X185763094Y-84014054D01*
X185882142Y-84252149D02*
X185882142Y-83752149D01*
X185882142Y-83752149D02*
X185691666Y-83752149D01*
X185691666Y-83752149D02*
X185644047Y-83775959D01*
X185644047Y-83775959D02*
X185620237Y-83799768D01*
X185620237Y-83799768D02*
X185596428Y-83847387D01*
X185596428Y-83847387D02*
X185596428Y-83918816D01*
X185596428Y-83918816D02*
X185620237Y-83966435D01*
X185620237Y-83966435D02*
X185644047Y-83990244D01*
X185644047Y-83990244D02*
X185691666Y-84014054D01*
X185691666Y-84014054D02*
X185882142Y-84014054D01*
X185382142Y-83990244D02*
X185215475Y-83990244D01*
X185144047Y-84252149D02*
X185382142Y-84252149D01*
X185382142Y-84252149D02*
X185382142Y-83752149D01*
X185382142Y-83752149D02*
X185144047Y-83752149D01*
X112060714Y-122252149D02*
X112060714Y-121752149D01*
X112060714Y-121752149D02*
X111894047Y-122109292D01*
X111894047Y-122109292D02*
X111727381Y-121752149D01*
X111727381Y-121752149D02*
X111727381Y-122252149D01*
X111489285Y-122252149D02*
X111489285Y-121752149D01*
X111251190Y-122252149D02*
X111251190Y-121752149D01*
X111251190Y-121752149D02*
X111060714Y-121752149D01*
X111060714Y-121752149D02*
X111013095Y-121775959D01*
X111013095Y-121775959D02*
X110989285Y-121799768D01*
X110989285Y-121799768D02*
X110965476Y-121847387D01*
X110965476Y-121847387D02*
X110965476Y-121918816D01*
X110965476Y-121918816D02*
X110989285Y-121966435D01*
X110989285Y-121966435D02*
X111013095Y-121990244D01*
X111013095Y-121990244D02*
X111060714Y-122014054D01*
X111060714Y-122014054D02*
X111251190Y-122014054D01*
X111596428Y-128204530D02*
X111620237Y-128228340D01*
X111620237Y-128228340D02*
X111691666Y-128252149D01*
X111691666Y-128252149D02*
X111739285Y-128252149D01*
X111739285Y-128252149D02*
X111810713Y-128228340D01*
X111810713Y-128228340D02*
X111858332Y-128180720D01*
X111858332Y-128180720D02*
X111882142Y-128133101D01*
X111882142Y-128133101D02*
X111905951Y-128037863D01*
X111905951Y-128037863D02*
X111905951Y-127966435D01*
X111905951Y-127966435D02*
X111882142Y-127871197D01*
X111882142Y-127871197D02*
X111858332Y-127823578D01*
X111858332Y-127823578D02*
X111810713Y-127775959D01*
X111810713Y-127775959D02*
X111739285Y-127752149D01*
X111739285Y-127752149D02*
X111691666Y-127752149D01*
X111691666Y-127752149D02*
X111620237Y-127775959D01*
X111620237Y-127775959D02*
X111596428Y-127799768D01*
X111382142Y-127990244D02*
X111215475Y-127990244D01*
X111144047Y-128252149D02*
X111382142Y-128252149D01*
X111382142Y-128252149D02*
X111382142Y-127752149D01*
X111382142Y-127752149D02*
X111144047Y-127752149D01*
X120036904Y-122252149D02*
X120036904Y-121752149D01*
X120036904Y-121752149D02*
X119751190Y-122252149D01*
X119751190Y-122252149D02*
X119751190Y-121752149D01*
X119513094Y-122252149D02*
X119513094Y-121752149D01*
X119274999Y-122252149D02*
X119274999Y-121752149D01*
X119274999Y-121752149D02*
X119084523Y-121752149D01*
X119084523Y-121752149D02*
X119036904Y-121775959D01*
X119036904Y-121775959D02*
X119013094Y-121799768D01*
X119013094Y-121799768D02*
X118989285Y-121847387D01*
X118989285Y-121847387D02*
X118989285Y-121918816D01*
X118989285Y-121918816D02*
X119013094Y-121966435D01*
X119013094Y-121966435D02*
X119036904Y-121990244D01*
X119036904Y-121990244D02*
X119084523Y-122014054D01*
X119084523Y-122014054D02*
X119274999Y-122014054D01*
X119596428Y-128252149D02*
X119763094Y-128014054D01*
X119882142Y-128252149D02*
X119882142Y-127752149D01*
X119882142Y-127752149D02*
X119691666Y-127752149D01*
X119691666Y-127752149D02*
X119644047Y-127775959D01*
X119644047Y-127775959D02*
X119620237Y-127799768D01*
X119620237Y-127799768D02*
X119596428Y-127847387D01*
X119596428Y-127847387D02*
X119596428Y-127918816D01*
X119596428Y-127918816D02*
X119620237Y-127966435D01*
X119620237Y-127966435D02*
X119644047Y-127990244D01*
X119644047Y-127990244D02*
X119691666Y-128014054D01*
X119691666Y-128014054D02*
X119882142Y-128014054D01*
X119382142Y-127990244D02*
X119215475Y-127990244D01*
X119144047Y-128252149D02*
X119382142Y-128252149D01*
X119382142Y-128252149D02*
X119382142Y-127752149D01*
X119382142Y-127752149D02*
X119144047Y-127752149D01*
X112060714Y-100252149D02*
X112060714Y-99752149D01*
X112060714Y-99752149D02*
X111894047Y-100109292D01*
X111894047Y-100109292D02*
X111727381Y-99752149D01*
X111727381Y-99752149D02*
X111727381Y-100252149D01*
X111489285Y-100252149D02*
X111489285Y-99752149D01*
X111251190Y-100252149D02*
X111251190Y-99752149D01*
X111251190Y-99752149D02*
X111060714Y-99752149D01*
X111060714Y-99752149D02*
X111013095Y-99775959D01*
X111013095Y-99775959D02*
X110989285Y-99799768D01*
X110989285Y-99799768D02*
X110965476Y-99847387D01*
X110965476Y-99847387D02*
X110965476Y-99918816D01*
X110965476Y-99918816D02*
X110989285Y-99966435D01*
X110989285Y-99966435D02*
X111013095Y-99990244D01*
X111013095Y-99990244D02*
X111060714Y-100014054D01*
X111060714Y-100014054D02*
X111251190Y-100014054D01*
X111596428Y-106204530D02*
X111620237Y-106228340D01*
X111620237Y-106228340D02*
X111691666Y-106252149D01*
X111691666Y-106252149D02*
X111739285Y-106252149D01*
X111739285Y-106252149D02*
X111810713Y-106228340D01*
X111810713Y-106228340D02*
X111858332Y-106180720D01*
X111858332Y-106180720D02*
X111882142Y-106133101D01*
X111882142Y-106133101D02*
X111905951Y-106037863D01*
X111905951Y-106037863D02*
X111905951Y-105966435D01*
X111905951Y-105966435D02*
X111882142Y-105871197D01*
X111882142Y-105871197D02*
X111858332Y-105823578D01*
X111858332Y-105823578D02*
X111810713Y-105775959D01*
X111810713Y-105775959D02*
X111739285Y-105752149D01*
X111739285Y-105752149D02*
X111691666Y-105752149D01*
X111691666Y-105752149D02*
X111620237Y-105775959D01*
X111620237Y-105775959D02*
X111596428Y-105799768D01*
X111382142Y-105990244D02*
X111215475Y-105990244D01*
X111144047Y-106252149D02*
X111382142Y-106252149D01*
X111382142Y-106252149D02*
X111382142Y-105752149D01*
X111382142Y-105752149D02*
X111144047Y-105752149D01*
X120036904Y-100252149D02*
X120036904Y-99752149D01*
X120036904Y-99752149D02*
X119751190Y-100252149D01*
X119751190Y-100252149D02*
X119751190Y-99752149D01*
X119513094Y-100252149D02*
X119513094Y-99752149D01*
X119274999Y-100252149D02*
X119274999Y-99752149D01*
X119274999Y-99752149D02*
X119084523Y-99752149D01*
X119084523Y-99752149D02*
X119036904Y-99775959D01*
X119036904Y-99775959D02*
X119013094Y-99799768D01*
X119013094Y-99799768D02*
X118989285Y-99847387D01*
X118989285Y-99847387D02*
X118989285Y-99918816D01*
X118989285Y-99918816D02*
X119013094Y-99966435D01*
X119013094Y-99966435D02*
X119036904Y-99990244D01*
X119036904Y-99990244D02*
X119084523Y-100014054D01*
X119084523Y-100014054D02*
X119274999Y-100014054D01*
X119596428Y-106252149D02*
X119763094Y-106014054D01*
X119882142Y-106252149D02*
X119882142Y-105752149D01*
X119882142Y-105752149D02*
X119691666Y-105752149D01*
X119691666Y-105752149D02*
X119644047Y-105775959D01*
X119644047Y-105775959D02*
X119620237Y-105799768D01*
X119620237Y-105799768D02*
X119596428Y-105847387D01*
X119596428Y-105847387D02*
X119596428Y-105918816D01*
X119596428Y-105918816D02*
X119620237Y-105966435D01*
X119620237Y-105966435D02*
X119644047Y-105990244D01*
X119644047Y-105990244D02*
X119691666Y-106014054D01*
X119691666Y-106014054D02*
X119882142Y-106014054D01*
X119382142Y-105990244D02*
X119215475Y-105990244D01*
X119144047Y-106252149D02*
X119382142Y-106252149D01*
X119382142Y-106252149D02*
X119382142Y-105752149D01*
X119382142Y-105752149D02*
X119144047Y-105752149D01*
X134060714Y-100252149D02*
X134060714Y-99752149D01*
X134060714Y-99752149D02*
X133894047Y-100109292D01*
X133894047Y-100109292D02*
X133727381Y-99752149D01*
X133727381Y-99752149D02*
X133727381Y-100252149D01*
X133489285Y-100252149D02*
X133489285Y-99752149D01*
X133251190Y-100252149D02*
X133251190Y-99752149D01*
X133251190Y-99752149D02*
X133060714Y-99752149D01*
X133060714Y-99752149D02*
X133013095Y-99775959D01*
X133013095Y-99775959D02*
X132989285Y-99799768D01*
X132989285Y-99799768D02*
X132965476Y-99847387D01*
X132965476Y-99847387D02*
X132965476Y-99918816D01*
X132965476Y-99918816D02*
X132989285Y-99966435D01*
X132989285Y-99966435D02*
X133013095Y-99990244D01*
X133013095Y-99990244D02*
X133060714Y-100014054D01*
X133060714Y-100014054D02*
X133251190Y-100014054D01*
X133596428Y-106204530D02*
X133620237Y-106228340D01*
X133620237Y-106228340D02*
X133691666Y-106252149D01*
X133691666Y-106252149D02*
X133739285Y-106252149D01*
X133739285Y-106252149D02*
X133810713Y-106228340D01*
X133810713Y-106228340D02*
X133858332Y-106180720D01*
X133858332Y-106180720D02*
X133882142Y-106133101D01*
X133882142Y-106133101D02*
X133905951Y-106037863D01*
X133905951Y-106037863D02*
X133905951Y-105966435D01*
X133905951Y-105966435D02*
X133882142Y-105871197D01*
X133882142Y-105871197D02*
X133858332Y-105823578D01*
X133858332Y-105823578D02*
X133810713Y-105775959D01*
X133810713Y-105775959D02*
X133739285Y-105752149D01*
X133739285Y-105752149D02*
X133691666Y-105752149D01*
X133691666Y-105752149D02*
X133620237Y-105775959D01*
X133620237Y-105775959D02*
X133596428Y-105799768D01*
X133382142Y-105990244D02*
X133215475Y-105990244D01*
X133144047Y-106252149D02*
X133382142Y-106252149D01*
X133382142Y-106252149D02*
X133382142Y-105752149D01*
X133382142Y-105752149D02*
X133144047Y-105752149D01*
X142036904Y-100252149D02*
X142036904Y-99752149D01*
X142036904Y-99752149D02*
X141751190Y-100252149D01*
X141751190Y-100252149D02*
X141751190Y-99752149D01*
X141513094Y-100252149D02*
X141513094Y-99752149D01*
X141274999Y-100252149D02*
X141274999Y-99752149D01*
X141274999Y-99752149D02*
X141084523Y-99752149D01*
X141084523Y-99752149D02*
X141036904Y-99775959D01*
X141036904Y-99775959D02*
X141013094Y-99799768D01*
X141013094Y-99799768D02*
X140989285Y-99847387D01*
X140989285Y-99847387D02*
X140989285Y-99918816D01*
X140989285Y-99918816D02*
X141013094Y-99966435D01*
X141013094Y-99966435D02*
X141036904Y-99990244D01*
X141036904Y-99990244D02*
X141084523Y-100014054D01*
X141084523Y-100014054D02*
X141274999Y-100014054D01*
X141596428Y-106252149D02*
X141763094Y-106014054D01*
X141882142Y-106252149D02*
X141882142Y-105752149D01*
X141882142Y-105752149D02*
X141691666Y-105752149D01*
X141691666Y-105752149D02*
X141644047Y-105775959D01*
X141644047Y-105775959D02*
X141620237Y-105799768D01*
X141620237Y-105799768D02*
X141596428Y-105847387D01*
X141596428Y-105847387D02*
X141596428Y-105918816D01*
X141596428Y-105918816D02*
X141620237Y-105966435D01*
X141620237Y-105966435D02*
X141644047Y-105990244D01*
X141644047Y-105990244D02*
X141691666Y-106014054D01*
X141691666Y-106014054D02*
X141882142Y-106014054D01*
X141382142Y-105990244D02*
X141215475Y-105990244D01*
X141144047Y-106252149D02*
X141382142Y-106252149D01*
X141382142Y-106252149D02*
X141382142Y-105752149D01*
X141382142Y-105752149D02*
X141144047Y-105752149D01*
X178060714Y-100252149D02*
X178060714Y-99752149D01*
X178060714Y-99752149D02*
X177894047Y-100109292D01*
X177894047Y-100109292D02*
X177727381Y-99752149D01*
X177727381Y-99752149D02*
X177727381Y-100252149D01*
X177489285Y-100252149D02*
X177489285Y-99752149D01*
X177251190Y-100252149D02*
X177251190Y-99752149D01*
X177251190Y-99752149D02*
X177060714Y-99752149D01*
X177060714Y-99752149D02*
X177013095Y-99775959D01*
X177013095Y-99775959D02*
X176989285Y-99799768D01*
X176989285Y-99799768D02*
X176965476Y-99847387D01*
X176965476Y-99847387D02*
X176965476Y-99918816D01*
X176965476Y-99918816D02*
X176989285Y-99966435D01*
X176989285Y-99966435D02*
X177013095Y-99990244D01*
X177013095Y-99990244D02*
X177060714Y-100014054D01*
X177060714Y-100014054D02*
X177251190Y-100014054D01*
X177596428Y-106204530D02*
X177620237Y-106228340D01*
X177620237Y-106228340D02*
X177691666Y-106252149D01*
X177691666Y-106252149D02*
X177739285Y-106252149D01*
X177739285Y-106252149D02*
X177810713Y-106228340D01*
X177810713Y-106228340D02*
X177858332Y-106180720D01*
X177858332Y-106180720D02*
X177882142Y-106133101D01*
X177882142Y-106133101D02*
X177905951Y-106037863D01*
X177905951Y-106037863D02*
X177905951Y-105966435D01*
X177905951Y-105966435D02*
X177882142Y-105871197D01*
X177882142Y-105871197D02*
X177858332Y-105823578D01*
X177858332Y-105823578D02*
X177810713Y-105775959D01*
X177810713Y-105775959D02*
X177739285Y-105752149D01*
X177739285Y-105752149D02*
X177691666Y-105752149D01*
X177691666Y-105752149D02*
X177620237Y-105775959D01*
X177620237Y-105775959D02*
X177596428Y-105799768D01*
X177382142Y-105990244D02*
X177215475Y-105990244D01*
X177144047Y-106252149D02*
X177382142Y-106252149D01*
X177382142Y-106252149D02*
X177382142Y-105752149D01*
X177382142Y-105752149D02*
X177144047Y-105752149D01*
X186036904Y-100252149D02*
X186036904Y-99752149D01*
X186036904Y-99752149D02*
X185751190Y-100252149D01*
X185751190Y-100252149D02*
X185751190Y-99752149D01*
X185513094Y-100252149D02*
X185513094Y-99752149D01*
X185274999Y-100252149D02*
X185274999Y-99752149D01*
X185274999Y-99752149D02*
X185084523Y-99752149D01*
X185084523Y-99752149D02*
X185036904Y-99775959D01*
X185036904Y-99775959D02*
X185013094Y-99799768D01*
X185013094Y-99799768D02*
X184989285Y-99847387D01*
X184989285Y-99847387D02*
X184989285Y-99918816D01*
X184989285Y-99918816D02*
X185013094Y-99966435D01*
X185013094Y-99966435D02*
X185036904Y-99990244D01*
X185036904Y-99990244D02*
X185084523Y-100014054D01*
X185084523Y-100014054D02*
X185274999Y-100014054D01*
X185596428Y-106252149D02*
X185763094Y-106014054D01*
X185882142Y-106252149D02*
X185882142Y-105752149D01*
X185882142Y-105752149D02*
X185691666Y-105752149D01*
X185691666Y-105752149D02*
X185644047Y-105775959D01*
X185644047Y-105775959D02*
X185620237Y-105799768D01*
X185620237Y-105799768D02*
X185596428Y-105847387D01*
X185596428Y-105847387D02*
X185596428Y-105918816D01*
X185596428Y-105918816D02*
X185620237Y-105966435D01*
X185620237Y-105966435D02*
X185644047Y-105990244D01*
X185644047Y-105990244D02*
X185691666Y-106014054D01*
X185691666Y-106014054D02*
X185882142Y-106014054D01*
X185382142Y-105990244D02*
X185215475Y-105990244D01*
X185144047Y-106252149D02*
X185382142Y-106252149D01*
X185382142Y-106252149D02*
X185382142Y-105752149D01*
X185382142Y-105752149D02*
X185144047Y-105752149D01*
X134060714Y-122252149D02*
X134060714Y-121752149D01*
X134060714Y-121752149D02*
X133894047Y-122109292D01*
X133894047Y-122109292D02*
X133727381Y-121752149D01*
X133727381Y-121752149D02*
X133727381Y-122252149D01*
X133489285Y-122252149D02*
X133489285Y-121752149D01*
X133251190Y-122252149D02*
X133251190Y-121752149D01*
X133251190Y-121752149D02*
X133060714Y-121752149D01*
X133060714Y-121752149D02*
X133013095Y-121775959D01*
X133013095Y-121775959D02*
X132989285Y-121799768D01*
X132989285Y-121799768D02*
X132965476Y-121847387D01*
X132965476Y-121847387D02*
X132965476Y-121918816D01*
X132965476Y-121918816D02*
X132989285Y-121966435D01*
X132989285Y-121966435D02*
X133013095Y-121990244D01*
X133013095Y-121990244D02*
X133060714Y-122014054D01*
X133060714Y-122014054D02*
X133251190Y-122014054D01*
X133596428Y-128204530D02*
X133620237Y-128228340D01*
X133620237Y-128228340D02*
X133691666Y-128252149D01*
X133691666Y-128252149D02*
X133739285Y-128252149D01*
X133739285Y-128252149D02*
X133810713Y-128228340D01*
X133810713Y-128228340D02*
X133858332Y-128180720D01*
X133858332Y-128180720D02*
X133882142Y-128133101D01*
X133882142Y-128133101D02*
X133905951Y-128037863D01*
X133905951Y-128037863D02*
X133905951Y-127966435D01*
X133905951Y-127966435D02*
X133882142Y-127871197D01*
X133882142Y-127871197D02*
X133858332Y-127823578D01*
X133858332Y-127823578D02*
X133810713Y-127775959D01*
X133810713Y-127775959D02*
X133739285Y-127752149D01*
X133739285Y-127752149D02*
X133691666Y-127752149D01*
X133691666Y-127752149D02*
X133620237Y-127775959D01*
X133620237Y-127775959D02*
X133596428Y-127799768D01*
X133382142Y-127990244D02*
X133215475Y-127990244D01*
X133144047Y-128252149D02*
X133382142Y-128252149D01*
X133382142Y-128252149D02*
X133382142Y-127752149D01*
X133382142Y-127752149D02*
X133144047Y-127752149D01*
X142036904Y-122252149D02*
X142036904Y-121752149D01*
X142036904Y-121752149D02*
X141751190Y-122252149D01*
X141751190Y-122252149D02*
X141751190Y-121752149D01*
X141513094Y-122252149D02*
X141513094Y-121752149D01*
X141274999Y-122252149D02*
X141274999Y-121752149D01*
X141274999Y-121752149D02*
X141084523Y-121752149D01*
X141084523Y-121752149D02*
X141036904Y-121775959D01*
X141036904Y-121775959D02*
X141013094Y-121799768D01*
X141013094Y-121799768D02*
X140989285Y-121847387D01*
X140989285Y-121847387D02*
X140989285Y-121918816D01*
X140989285Y-121918816D02*
X141013094Y-121966435D01*
X141013094Y-121966435D02*
X141036904Y-121990244D01*
X141036904Y-121990244D02*
X141084523Y-122014054D01*
X141084523Y-122014054D02*
X141274999Y-122014054D01*
X141596428Y-128252149D02*
X141763094Y-128014054D01*
X141882142Y-128252149D02*
X141882142Y-127752149D01*
X141882142Y-127752149D02*
X141691666Y-127752149D01*
X141691666Y-127752149D02*
X141644047Y-127775959D01*
X141644047Y-127775959D02*
X141620237Y-127799768D01*
X141620237Y-127799768D02*
X141596428Y-127847387D01*
X141596428Y-127847387D02*
X141596428Y-127918816D01*
X141596428Y-127918816D02*
X141620237Y-127966435D01*
X141620237Y-127966435D02*
X141644047Y-127990244D01*
X141644047Y-127990244D02*
X141691666Y-128014054D01*
X141691666Y-128014054D02*
X141882142Y-128014054D01*
X141382142Y-127990244D02*
X141215475Y-127990244D01*
X141144047Y-128252149D02*
X141382142Y-128252149D01*
X141382142Y-128252149D02*
X141382142Y-127752149D01*
X141382142Y-127752149D02*
X141144047Y-127752149D01*
X156060714Y-122252149D02*
X156060714Y-121752149D01*
X156060714Y-121752149D02*
X155894047Y-122109292D01*
X155894047Y-122109292D02*
X155727381Y-121752149D01*
X155727381Y-121752149D02*
X155727381Y-122252149D01*
X155489285Y-122252149D02*
X155489285Y-121752149D01*
X155251190Y-122252149D02*
X155251190Y-121752149D01*
X155251190Y-121752149D02*
X155060714Y-121752149D01*
X155060714Y-121752149D02*
X155013095Y-121775959D01*
X155013095Y-121775959D02*
X154989285Y-121799768D01*
X154989285Y-121799768D02*
X154965476Y-121847387D01*
X154965476Y-121847387D02*
X154965476Y-121918816D01*
X154965476Y-121918816D02*
X154989285Y-121966435D01*
X154989285Y-121966435D02*
X155013095Y-121990244D01*
X155013095Y-121990244D02*
X155060714Y-122014054D01*
X155060714Y-122014054D02*
X155251190Y-122014054D01*
X155596428Y-128204530D02*
X155620237Y-128228340D01*
X155620237Y-128228340D02*
X155691666Y-128252149D01*
X155691666Y-128252149D02*
X155739285Y-128252149D01*
X155739285Y-128252149D02*
X155810713Y-128228340D01*
X155810713Y-128228340D02*
X155858332Y-128180720D01*
X155858332Y-128180720D02*
X155882142Y-128133101D01*
X155882142Y-128133101D02*
X155905951Y-128037863D01*
X155905951Y-128037863D02*
X155905951Y-127966435D01*
X155905951Y-127966435D02*
X155882142Y-127871197D01*
X155882142Y-127871197D02*
X155858332Y-127823578D01*
X155858332Y-127823578D02*
X155810713Y-127775959D01*
X155810713Y-127775959D02*
X155739285Y-127752149D01*
X155739285Y-127752149D02*
X155691666Y-127752149D01*
X155691666Y-127752149D02*
X155620237Y-127775959D01*
X155620237Y-127775959D02*
X155596428Y-127799768D01*
X155382142Y-127990244D02*
X155215475Y-127990244D01*
X155144047Y-128252149D02*
X155382142Y-128252149D01*
X155382142Y-128252149D02*
X155382142Y-127752149D01*
X155382142Y-127752149D02*
X155144047Y-127752149D01*
X164036904Y-122252149D02*
X164036904Y-121752149D01*
X164036904Y-121752149D02*
X163751190Y-122252149D01*
X163751190Y-122252149D02*
X163751190Y-121752149D01*
X163513094Y-122252149D02*
X163513094Y-121752149D01*
X163274999Y-122252149D02*
X163274999Y-121752149D01*
X163274999Y-121752149D02*
X163084523Y-121752149D01*
X163084523Y-121752149D02*
X163036904Y-121775959D01*
X163036904Y-121775959D02*
X163013094Y-121799768D01*
X163013094Y-121799768D02*
X162989285Y-121847387D01*
X162989285Y-121847387D02*
X162989285Y-121918816D01*
X162989285Y-121918816D02*
X163013094Y-121966435D01*
X163013094Y-121966435D02*
X163036904Y-121990244D01*
X163036904Y-121990244D02*
X163084523Y-122014054D01*
X163084523Y-122014054D02*
X163274999Y-122014054D01*
X163596428Y-128252149D02*
X163763094Y-128014054D01*
X163882142Y-128252149D02*
X163882142Y-127752149D01*
X163882142Y-127752149D02*
X163691666Y-127752149D01*
X163691666Y-127752149D02*
X163644047Y-127775959D01*
X163644047Y-127775959D02*
X163620237Y-127799768D01*
X163620237Y-127799768D02*
X163596428Y-127847387D01*
X163596428Y-127847387D02*
X163596428Y-127918816D01*
X163596428Y-127918816D02*
X163620237Y-127966435D01*
X163620237Y-127966435D02*
X163644047Y-127990244D01*
X163644047Y-127990244D02*
X163691666Y-128014054D01*
X163691666Y-128014054D02*
X163882142Y-128014054D01*
X163382142Y-127990244D02*
X163215475Y-127990244D01*
X163144047Y-128252149D02*
X163382142Y-128252149D01*
X163382142Y-128252149D02*
X163382142Y-127752149D01*
X163382142Y-127752149D02*
X163144047Y-127752149D01*
X178060714Y-122252149D02*
X178060714Y-121752149D01*
X178060714Y-121752149D02*
X177894047Y-122109292D01*
X177894047Y-122109292D02*
X177727381Y-121752149D01*
X177727381Y-121752149D02*
X177727381Y-122252149D01*
X177489285Y-122252149D02*
X177489285Y-121752149D01*
X177251190Y-122252149D02*
X177251190Y-121752149D01*
X177251190Y-121752149D02*
X177060714Y-121752149D01*
X177060714Y-121752149D02*
X177013095Y-121775959D01*
X177013095Y-121775959D02*
X176989285Y-121799768D01*
X176989285Y-121799768D02*
X176965476Y-121847387D01*
X176965476Y-121847387D02*
X176965476Y-121918816D01*
X176965476Y-121918816D02*
X176989285Y-121966435D01*
X176989285Y-121966435D02*
X177013095Y-121990244D01*
X177013095Y-121990244D02*
X177060714Y-122014054D01*
X177060714Y-122014054D02*
X177251190Y-122014054D01*
X177596428Y-128204530D02*
X177620237Y-128228340D01*
X177620237Y-128228340D02*
X177691666Y-128252149D01*
X177691666Y-128252149D02*
X177739285Y-128252149D01*
X177739285Y-128252149D02*
X177810713Y-128228340D01*
X177810713Y-128228340D02*
X177858332Y-128180720D01*
X177858332Y-128180720D02*
X177882142Y-128133101D01*
X177882142Y-128133101D02*
X177905951Y-128037863D01*
X177905951Y-128037863D02*
X177905951Y-127966435D01*
X177905951Y-127966435D02*
X177882142Y-127871197D01*
X177882142Y-127871197D02*
X177858332Y-127823578D01*
X177858332Y-127823578D02*
X177810713Y-127775959D01*
X177810713Y-127775959D02*
X177739285Y-127752149D01*
X177739285Y-127752149D02*
X177691666Y-127752149D01*
X177691666Y-127752149D02*
X177620237Y-127775959D01*
X177620237Y-127775959D02*
X177596428Y-127799768D01*
X177382142Y-127990244D02*
X177215475Y-127990244D01*
X177144047Y-128252149D02*
X177382142Y-128252149D01*
X177382142Y-128252149D02*
X177382142Y-127752149D01*
X177382142Y-127752149D02*
X177144047Y-127752149D01*
X186036904Y-122252149D02*
X186036904Y-121752149D01*
X186036904Y-121752149D02*
X185751190Y-122252149D01*
X185751190Y-122252149D02*
X185751190Y-121752149D01*
X185513094Y-122252149D02*
X185513094Y-121752149D01*
X185274999Y-122252149D02*
X185274999Y-121752149D01*
X185274999Y-121752149D02*
X185084523Y-121752149D01*
X185084523Y-121752149D02*
X185036904Y-121775959D01*
X185036904Y-121775959D02*
X185013094Y-121799768D01*
X185013094Y-121799768D02*
X184989285Y-121847387D01*
X184989285Y-121847387D02*
X184989285Y-121918816D01*
X184989285Y-121918816D02*
X185013094Y-121966435D01*
X185013094Y-121966435D02*
X185036904Y-121990244D01*
X185036904Y-121990244D02*
X185084523Y-122014054D01*
X185084523Y-122014054D02*
X185274999Y-122014054D01*
X185596428Y-128252149D02*
X185763094Y-128014054D01*
X185882142Y-128252149D02*
X185882142Y-127752149D01*
X185882142Y-127752149D02*
X185691666Y-127752149D01*
X185691666Y-127752149D02*
X185644047Y-127775959D01*
X185644047Y-127775959D02*
X185620237Y-127799768D01*
X185620237Y-127799768D02*
X185596428Y-127847387D01*
X185596428Y-127847387D02*
X185596428Y-127918816D01*
X185596428Y-127918816D02*
X185620237Y-127966435D01*
X185620237Y-127966435D02*
X185644047Y-127990244D01*
X185644047Y-127990244D02*
X185691666Y-128014054D01*
X185691666Y-128014054D02*
X185882142Y-128014054D01*
X185382142Y-127990244D02*
X185215475Y-127990244D01*
X185144047Y-128252149D02*
X185382142Y-128252149D01*
X185382142Y-128252149D02*
X185382142Y-127752149D01*
X185382142Y-127752149D02*
X185144047Y-127752149D01*
X134060714Y-78252149D02*
X134060714Y-77752149D01*
X134060714Y-77752149D02*
X133894047Y-78109292D01*
X133894047Y-78109292D02*
X133727381Y-77752149D01*
X133727381Y-77752149D02*
X133727381Y-78252149D01*
X133489285Y-78252149D02*
X133489285Y-77752149D01*
X133251190Y-78252149D02*
X133251190Y-77752149D01*
X133251190Y-77752149D02*
X133060714Y-77752149D01*
X133060714Y-77752149D02*
X133013095Y-77775959D01*
X133013095Y-77775959D02*
X132989285Y-77799768D01*
X132989285Y-77799768D02*
X132965476Y-77847387D01*
X132965476Y-77847387D02*
X132965476Y-77918816D01*
X132965476Y-77918816D02*
X132989285Y-77966435D01*
X132989285Y-77966435D02*
X133013095Y-77990244D01*
X133013095Y-77990244D02*
X133060714Y-78014054D01*
X133060714Y-78014054D02*
X133251190Y-78014054D01*
X133596428Y-84204530D02*
X133620237Y-84228340D01*
X133620237Y-84228340D02*
X133691666Y-84252149D01*
X133691666Y-84252149D02*
X133739285Y-84252149D01*
X133739285Y-84252149D02*
X133810713Y-84228340D01*
X133810713Y-84228340D02*
X133858332Y-84180720D01*
X133858332Y-84180720D02*
X133882142Y-84133101D01*
X133882142Y-84133101D02*
X133905951Y-84037863D01*
X133905951Y-84037863D02*
X133905951Y-83966435D01*
X133905951Y-83966435D02*
X133882142Y-83871197D01*
X133882142Y-83871197D02*
X133858332Y-83823578D01*
X133858332Y-83823578D02*
X133810713Y-83775959D01*
X133810713Y-83775959D02*
X133739285Y-83752149D01*
X133739285Y-83752149D02*
X133691666Y-83752149D01*
X133691666Y-83752149D02*
X133620237Y-83775959D01*
X133620237Y-83775959D02*
X133596428Y-83799768D01*
X133382142Y-83990244D02*
X133215475Y-83990244D01*
X133144047Y-84252149D02*
X133382142Y-84252149D01*
X133382142Y-84252149D02*
X133382142Y-83752149D01*
X133382142Y-83752149D02*
X133144047Y-83752149D01*
X142036904Y-78252149D02*
X142036904Y-77752149D01*
X142036904Y-77752149D02*
X141751190Y-78252149D01*
X141751190Y-78252149D02*
X141751190Y-77752149D01*
X141513094Y-78252149D02*
X141513094Y-77752149D01*
X141274999Y-78252149D02*
X141274999Y-77752149D01*
X141274999Y-77752149D02*
X141084523Y-77752149D01*
X141084523Y-77752149D02*
X141036904Y-77775959D01*
X141036904Y-77775959D02*
X141013094Y-77799768D01*
X141013094Y-77799768D02*
X140989285Y-77847387D01*
X140989285Y-77847387D02*
X140989285Y-77918816D01*
X140989285Y-77918816D02*
X141013094Y-77966435D01*
X141013094Y-77966435D02*
X141036904Y-77990244D01*
X141036904Y-77990244D02*
X141084523Y-78014054D01*
X141084523Y-78014054D02*
X141274999Y-78014054D01*
X141596428Y-84252149D02*
X141763094Y-84014054D01*
X141882142Y-84252149D02*
X141882142Y-83752149D01*
X141882142Y-83752149D02*
X141691666Y-83752149D01*
X141691666Y-83752149D02*
X141644047Y-83775959D01*
X141644047Y-83775959D02*
X141620237Y-83799768D01*
X141620237Y-83799768D02*
X141596428Y-83847387D01*
X141596428Y-83847387D02*
X141596428Y-83918816D01*
X141596428Y-83918816D02*
X141620237Y-83966435D01*
X141620237Y-83966435D02*
X141644047Y-83990244D01*
X141644047Y-83990244D02*
X141691666Y-84014054D01*
X141691666Y-84014054D02*
X141882142Y-84014054D01*
X141382142Y-83990244D02*
X141215475Y-83990244D01*
X141144047Y-84252149D02*
X141382142Y-84252149D01*
X141382142Y-84252149D02*
X141382142Y-83752149D01*
X141382142Y-83752149D02*
X141144047Y-83752149D01*
X112060714Y-78252149D02*
X112060714Y-77752149D01*
X112060714Y-77752149D02*
X111894047Y-78109292D01*
X111894047Y-78109292D02*
X111727381Y-77752149D01*
X111727381Y-77752149D02*
X111727381Y-78252149D01*
X111489285Y-78252149D02*
X111489285Y-77752149D01*
X111251190Y-78252149D02*
X111251190Y-77752149D01*
X111251190Y-77752149D02*
X111060714Y-77752149D01*
X111060714Y-77752149D02*
X111013095Y-77775959D01*
X111013095Y-77775959D02*
X110989285Y-77799768D01*
X110989285Y-77799768D02*
X110965476Y-77847387D01*
X110965476Y-77847387D02*
X110965476Y-77918816D01*
X110965476Y-77918816D02*
X110989285Y-77966435D01*
X110989285Y-77966435D02*
X111013095Y-77990244D01*
X111013095Y-77990244D02*
X111060714Y-78014054D01*
X111060714Y-78014054D02*
X111251190Y-78014054D01*
X111596428Y-84204530D02*
X111620237Y-84228340D01*
X111620237Y-84228340D02*
X111691666Y-84252149D01*
X111691666Y-84252149D02*
X111739285Y-84252149D01*
X111739285Y-84252149D02*
X111810713Y-84228340D01*
X111810713Y-84228340D02*
X111858332Y-84180720D01*
X111858332Y-84180720D02*
X111882142Y-84133101D01*
X111882142Y-84133101D02*
X111905951Y-84037863D01*
X111905951Y-84037863D02*
X111905951Y-83966435D01*
X111905951Y-83966435D02*
X111882142Y-83871197D01*
X111882142Y-83871197D02*
X111858332Y-83823578D01*
X111858332Y-83823578D02*
X111810713Y-83775959D01*
X111810713Y-83775959D02*
X111739285Y-83752149D01*
X111739285Y-83752149D02*
X111691666Y-83752149D01*
X111691666Y-83752149D02*
X111620237Y-83775959D01*
X111620237Y-83775959D02*
X111596428Y-83799768D01*
X111382142Y-83990244D02*
X111215475Y-83990244D01*
X111144047Y-84252149D02*
X111382142Y-84252149D01*
X111382142Y-84252149D02*
X111382142Y-83752149D01*
X111382142Y-83752149D02*
X111144047Y-83752149D01*
X120036904Y-78252149D02*
X120036904Y-77752149D01*
X120036904Y-77752149D02*
X119751190Y-78252149D01*
X119751190Y-78252149D02*
X119751190Y-77752149D01*
X119513094Y-78252149D02*
X119513094Y-77752149D01*
X119274999Y-78252149D02*
X119274999Y-77752149D01*
X119274999Y-77752149D02*
X119084523Y-77752149D01*
X119084523Y-77752149D02*
X119036904Y-77775959D01*
X119036904Y-77775959D02*
X119013094Y-77799768D01*
X119013094Y-77799768D02*
X118989285Y-77847387D01*
X118989285Y-77847387D02*
X118989285Y-77918816D01*
X118989285Y-77918816D02*
X119013094Y-77966435D01*
X119013094Y-77966435D02*
X119036904Y-77990244D01*
X119036904Y-77990244D02*
X119084523Y-78014054D01*
X119084523Y-78014054D02*
X119274999Y-78014054D01*
X119596428Y-84252149D02*
X119763094Y-84014054D01*
X119882142Y-84252149D02*
X119882142Y-83752149D01*
X119882142Y-83752149D02*
X119691666Y-83752149D01*
X119691666Y-83752149D02*
X119644047Y-83775959D01*
X119644047Y-83775959D02*
X119620237Y-83799768D01*
X119620237Y-83799768D02*
X119596428Y-83847387D01*
X119596428Y-83847387D02*
X119596428Y-83918816D01*
X119596428Y-83918816D02*
X119620237Y-83966435D01*
X119620237Y-83966435D02*
X119644047Y-83990244D01*
X119644047Y-83990244D02*
X119691666Y-84014054D01*
X119691666Y-84014054D02*
X119882142Y-84014054D01*
X119382142Y-83990244D02*
X119215475Y-83990244D01*
X119144047Y-84252149D02*
X119382142Y-84252149D01*
X119382142Y-84252149D02*
X119382142Y-83752149D01*
X119382142Y-83752149D02*
X119144047Y-83752149D01*
M02*
