%TF.GenerationSoftware,KiCad,Pcbnew,10.0.0*%
%TF.CreationDate,2026-04-12T17:00:40-04:00*%
%TF.ProjectId,cortipod-electrode-panel,636f7274-6970-46f6-942d-656c65637472,rev?*%
%TF.SameCoordinates,Original*%
%TF.FileFunction,Copper,L1,Top*%
%TF.FilePolarity,Positive*%
%FSLAX46Y46*%
G04 Gerber Fmt 4.6, Leading zero omitted, Abs format (unit mm)*
G04 Created by KiCad (PCBNEW 10.0.0) date 2026-04-12 17:00:40*
%MOMM*%
%LPD*%
G01*
G04 APERTURE LIST*
G04 Aperture macros list*
%AMRoundRect*
0 Rectangle with rounded corners*
0 $1 Rounding radius*
0 $2 $3 $4 $5 $6 $7 $8 $9 X,Y pos of 4 corners*
0 Add a 4 corners polygon primitive as box body*
4,1,4,$2,$3,$4,$5,$6,$7,$8,$9,$2,$3,0*
0 Add four circle primitives for the rounded corners*
1,1,$1+$1,$2,$3*
1,1,$1+$1,$4,$5*
1,1,$1+$1,$6,$7*
1,1,$1+$1,$8,$9*
0 Add four rect primitives between the rounded corners*
20,1,$1+$1,$2,$3,$4,$5,0*
20,1,$1+$1,$4,$5,$6,$7,0*
20,1,$1+$1,$6,$7,$8,$9,0*
20,1,$1+$1,$8,$9,$2,$3,0*%
G04 Aperture macros list end*
%TA.AperFunction,SMDPad,CuDef*%
%ADD10C,8.000000*%
%TD*%
%TA.AperFunction,SMDPad,CuDef*%
%ADD11RoundRect,0.400000X-9.600000X-0.600000X9.600000X-0.600000X9.600000X0.600000X-9.600000X0.600000X0*%
%TD*%
%TA.AperFunction,SMDPad,CuDef*%
%ADD12RoundRect,0.200000X-0.300000X-3.800000X0.300000X-3.800000X0.300000X3.800000X-0.300000X3.800000X0*%
%TD*%
%TA.AperFunction,SMDPad,CuDef*%
%ADD13C,2.000000*%
%TD*%
%TA.AperFunction,SMDPad,CuDef*%
%ADD14R,1.500000X1.500000*%
%TD*%
%TA.AperFunction,SMDPad,CuDef*%
%ADD15RoundRect,0.375000X-1.125000X-0.375000X1.125000X-0.375000X1.125000X0.375000X-1.125000X0.375000X0*%
%TD*%
%TA.AperFunction,ViaPad*%
%ADD16C,0.600000*%
%TD*%
%TA.AperFunction,Conductor*%
%ADD17C,0.800000*%
%TD*%
%TA.AperFunction,Conductor*%
%ADD18C,0.500000*%
%TD*%
G04 APERTURE END LIST*
D10*
%TO.P,E1,1*%
%TO.N,WE_MIP*%
X110525000Y-81025000D03*
%TO.P,E1,2*%
%TO.N,WE_NIP*%
X120525000Y-81025000D03*
D11*
%TO.P,E1,3B*%
%TO.N,CE*%
X115525000Y-86525000D03*
D12*
%TO.P,E1,3L*%
X105775000Y-81025000D03*
%TO.P,E1,3R*%
X125275000Y-81025000D03*
D11*
%TO.P,E1,3T*%
X115525000Y-75525000D03*
D13*
%TO.P,E1,4*%
%TO.N,RE*%
X115525000Y-88525000D03*
%TD*%
D10*
%TO.P,E1_2,1*%
%TO.N,WE_MIP*%
X132525000Y-81025000D03*
%TO.P,E1_2,2*%
%TO.N,WE_NIP*%
X142525000Y-81025000D03*
D11*
%TO.P,E1_2,3B*%
%TO.N,CE*%
X137525000Y-86525000D03*
D12*
%TO.P,E1_2,3L*%
X127775000Y-81025000D03*
%TO.P,E1_2,3R*%
X147275000Y-81025000D03*
D11*
%TO.P,E1_2,3T*%
X137525000Y-75525000D03*
D13*
%TO.P,E1_2,4*%
%TO.N,RE*%
X137525000Y-88525000D03*
%TD*%
D10*
%TO.P,E1_6,1*%
%TO.N,WE_MIP*%
X132525000Y-103025000D03*
%TO.P,E1_6,2*%
%TO.N,WE_NIP*%
X142525000Y-103025000D03*
D11*
%TO.P,E1_6,3B*%
%TO.N,CE*%
X137525000Y-108525000D03*
D12*
%TO.P,E1_6,3L*%
X127775000Y-103025000D03*
%TO.P,E1_6,3R*%
X147275000Y-103025000D03*
D11*
%TO.P,E1_6,3T*%
X137525000Y-97525000D03*
D13*
%TO.P,E1_6,4*%
%TO.N,RE*%
X137525000Y-110525000D03*
%TD*%
D10*
%TO.P,E1_3,1*%
%TO.N,WE_MIP*%
X154525000Y-81025000D03*
%TO.P,E1_3,2*%
%TO.N,WE_NIP*%
X164525000Y-81025000D03*
D11*
%TO.P,E1_3,3B*%
%TO.N,CE*%
X159525000Y-86525000D03*
D12*
%TO.P,E1_3,3L*%
X149775000Y-81025000D03*
%TO.P,E1_3,3R*%
X169275000Y-81025000D03*
D11*
%TO.P,E1_3,3T*%
X159525000Y-75525000D03*
D13*
%TO.P,E1_3,4*%
%TO.N,RE*%
X159525000Y-88525000D03*
%TD*%
D10*
%TO.P,E1_7,1*%
%TO.N,WE_MIP*%
X154525000Y-103025000D03*
%TO.P,E1_7,2*%
%TO.N,WE_NIP*%
X164525000Y-103025000D03*
D11*
%TO.P,E1_7,3B*%
%TO.N,CE*%
X159525000Y-108525000D03*
D12*
%TO.P,E1_7,3L*%
X149775000Y-103025000D03*
%TO.P,E1_7,3R*%
X169275000Y-103025000D03*
D11*
%TO.P,E1_7,3T*%
X159525000Y-97525000D03*
D13*
%TO.P,E1_7,4*%
%TO.N,RE*%
X159525000Y-110525000D03*
%TD*%
D10*
%TO.P,E1_4,1*%
%TO.N,WE_MIP*%
X176525000Y-81025000D03*
%TO.P,E1_4,2*%
%TO.N,WE_NIP*%
X186525000Y-81025000D03*
D11*
%TO.P,E1_4,3B*%
%TO.N,CE*%
X181525000Y-86525000D03*
D12*
%TO.P,E1_4,3L*%
X171775000Y-81025000D03*
%TO.P,E1_4,3R*%
X191275000Y-81025000D03*
D11*
%TO.P,E1_4,3T*%
X181525000Y-75525000D03*
D13*
%TO.P,E1_4,4*%
%TO.N,RE*%
X181525000Y-88525000D03*
%TD*%
D10*
%TO.P,E1_9,1*%
%TO.N,WE_MIP*%
X110525000Y-125025000D03*
%TO.P,E1_9,2*%
%TO.N,WE_NIP*%
X120525000Y-125025000D03*
D11*
%TO.P,E1_9,3B*%
%TO.N,CE*%
X115525000Y-130525000D03*
D12*
%TO.P,E1_9,3L*%
X105775000Y-125025000D03*
%TO.P,E1_9,3R*%
X125275000Y-125025000D03*
D11*
%TO.P,E1_9,3T*%
X115525000Y-119525000D03*
D13*
%TO.P,E1_9,4*%
%TO.N,RE*%
X115525000Y-132525000D03*
%TD*%
D10*
%TO.P,E1_5,1*%
%TO.N,WE_MIP*%
X110525000Y-103025000D03*
%TO.P,E1_5,2*%
%TO.N,WE_NIP*%
X120525000Y-103025000D03*
D11*
%TO.P,E1_5,3B*%
%TO.N,CE*%
X115525000Y-108525000D03*
D12*
%TO.P,E1_5,3L*%
X105775000Y-103025000D03*
%TO.P,E1_5,3R*%
X125275000Y-103025000D03*
D11*
%TO.P,E1_5,3T*%
X115525000Y-97525000D03*
D13*
%TO.P,E1_5,4*%
%TO.N,RE*%
X115525000Y-110525000D03*
%TD*%
D10*
%TO.P,E1_8,1*%
%TO.N,WE_MIP*%
X176525000Y-103025000D03*
%TO.P,E1_8,2*%
%TO.N,WE_NIP*%
X186525000Y-103025000D03*
D11*
%TO.P,E1_8,3B*%
%TO.N,CE*%
X181525000Y-108525000D03*
D12*
%TO.P,E1_8,3L*%
X171775000Y-103025000D03*
%TO.P,E1_8,3R*%
X191275000Y-103025000D03*
D11*
%TO.P,E1_8,3T*%
X181525000Y-97525000D03*
D13*
%TO.P,E1_8,4*%
%TO.N,RE*%
X181525000Y-110525000D03*
%TD*%
D10*
%TO.P,E1_10,1*%
%TO.N,WE_MIP*%
X132525000Y-125025000D03*
%TO.P,E1_10,2*%
%TO.N,WE_NIP*%
X142525000Y-125025000D03*
D11*
%TO.P,E1_10,3B*%
%TO.N,CE*%
X137525000Y-130525000D03*
D12*
%TO.P,E1_10,3L*%
X127775000Y-125025000D03*
%TO.P,E1_10,3R*%
X147275000Y-125025000D03*
D11*
%TO.P,E1_10,3T*%
X137525000Y-119525000D03*
D13*
%TO.P,E1_10,4*%
%TO.N,RE*%
X137525000Y-132525000D03*
%TD*%
D10*
%TO.P,E1_11,1*%
%TO.N,WE_MIP*%
X154525000Y-125025000D03*
%TO.P,E1_11,2*%
%TO.N,WE_NIP*%
X164525000Y-125025000D03*
D11*
%TO.P,E1_11,3B*%
%TO.N,CE*%
X159525000Y-130525000D03*
D12*
%TO.P,E1_11,3L*%
X149775000Y-125025000D03*
%TO.P,E1_11,3R*%
X169275000Y-125025000D03*
D11*
%TO.P,E1_11,3T*%
X159525000Y-119525000D03*
D13*
%TO.P,E1_11,4*%
%TO.N,RE*%
X159525000Y-132525000D03*
%TD*%
D10*
%TO.P,E1_12,1*%
%TO.N,WE_MIP*%
X176525000Y-125025000D03*
%TO.P,E1_12,2*%
%TO.N,WE_NIP*%
X186525000Y-125025000D03*
D11*
%TO.P,E1_12,3B*%
%TO.N,CE*%
X181525000Y-130525000D03*
D12*
%TO.P,E1_12,3L*%
X171775000Y-125025000D03*
%TO.P,E1_12,3R*%
X191275000Y-125025000D03*
D11*
%TO.P,E1_12,3T*%
X181525000Y-119525000D03*
D13*
%TO.P,E1_12,4*%
%TO.N,RE*%
X181525000Y-132525000D03*
%TD*%
D14*
%TO.P,,MIP_BUS*%
%TO.N,WE_MIP*%
X105525000Y-73025000D03*
%TD*%
%TO.P,_2,MIP_BUS*%
%TO.N,WE_MIP*%
X127525000Y-73025000D03*
%TD*%
%TO.P,_3,MIP_BUS*%
%TO.N,WE_MIP*%
X149525000Y-73025000D03*
%TD*%
%TO.P,_4,MIP_BUS*%
%TO.N,WE_MIP*%
X171525000Y-73025000D03*
%TD*%
%TO.P,_5,MIP_BUS*%
%TO.N,WE_MIP*%
X105525000Y-95025000D03*
%TD*%
%TO.P,_6,MIP_BUS*%
%TO.N,WE_MIP*%
X127525000Y-95025000D03*
%TD*%
%TO.P,_7,MIP_BUS*%
%TO.N,WE_MIP*%
X149525000Y-95025000D03*
%TD*%
%TO.P,_8,MIP_BUS*%
%TO.N,WE_MIP*%
X171525000Y-95025000D03*
%TD*%
%TO.P,_9,MIP_BUS*%
%TO.N,WE_MIP*%
X105525000Y-117025000D03*
%TD*%
%TO.P,_10,MIP_BUS*%
%TO.N,WE_MIP*%
X127525000Y-117025000D03*
%TD*%
%TO.P,_11,MIP_BUS*%
%TO.N,WE_MIP*%
X149525000Y-117025000D03*
%TD*%
%TO.P,_12,MIP_BUS*%
%TO.N,WE_MIP*%
X171525000Y-117025000D03*
%TD*%
%TO.P,,NIP_BUS*%
%TO.N,WE_NIP*%
X125525000Y-73025000D03*
%TD*%
%TO.P,_2,NIP_BUS*%
%TO.N,WE_NIP*%
X147525000Y-73025000D03*
%TD*%
%TO.P,_3,NIP_BUS*%
%TO.N,WE_NIP*%
X169525000Y-73025000D03*
%TD*%
%TO.P,_4,NIP_BUS*%
%TO.N,WE_NIP*%
X191525000Y-73025000D03*
%TD*%
%TO.P,_5,NIP_BUS*%
%TO.N,WE_NIP*%
X125525000Y-95025000D03*
%TD*%
%TO.P,_6,NIP_BUS*%
%TO.N,WE_NIP*%
X147525000Y-95025000D03*
%TD*%
%TO.P,_7,NIP_BUS*%
%TO.N,WE_NIP*%
X169525000Y-95025000D03*
%TD*%
%TO.P,_8,NIP_BUS*%
%TO.N,WE_NIP*%
X191525000Y-95025000D03*
%TD*%
%TO.P,_9,NIP_BUS*%
%TO.N,WE_NIP*%
X125525000Y-117025000D03*
%TD*%
%TO.P,_10,NIP_BUS*%
%TO.N,WE_NIP*%
X147525000Y-117025000D03*
%TD*%
%TO.P,_11,NIP_BUS*%
%TO.N,WE_NIP*%
X169525000Y-117025000D03*
%TD*%
%TO.P,_12,NIP_BUS*%
%TO.N,WE_NIP*%
X191525000Y-117025000D03*
%TD*%
D15*
%TO.P,_2,TP1*%
%TO.N,WE_MIP*%
X130025000Y-92025000D03*
%TO.P,_2,TP2*%
%TO.N,WE_NIP*%
X135025000Y-92025000D03*
%TO.P,_2,TP3*%
%TO.N,CE*%
X140025000Y-92025000D03*
%TO.P,_2,TP4*%
%TO.N,RE*%
X145025000Y-92025000D03*
%TD*%
%TO.P,,TP1*%
%TO.N,WE_MIP*%
X108025000Y-92025000D03*
%TO.P,,TP2*%
%TO.N,WE_NIP*%
X113025000Y-92025000D03*
%TO.P,,TP3*%
%TO.N,CE*%
X118025000Y-92025000D03*
%TO.P,,TP4*%
%TO.N,RE*%
X123025000Y-92025000D03*
%TD*%
%TO.P,_3,TP1*%
%TO.N,WE_MIP*%
X152025000Y-92025000D03*
%TO.P,_3,TP2*%
%TO.N,WE_NIP*%
X157025000Y-92025000D03*
%TO.P,_3,TP3*%
%TO.N,CE*%
X162025000Y-92025000D03*
%TO.P,_3,TP4*%
%TO.N,RE*%
X167025000Y-92025000D03*
%TD*%
%TO.P,_4,TP1*%
%TO.N,WE_MIP*%
X174025000Y-92025000D03*
%TO.P,_4,TP2*%
%TO.N,WE_NIP*%
X179025000Y-92025000D03*
%TO.P,_4,TP3*%
%TO.N,CE*%
X184025000Y-92025000D03*
%TO.P,_4,TP4*%
%TO.N,RE*%
X189025000Y-92025000D03*
%TD*%
%TO.P,_5,TP1*%
%TO.N,WE_MIP*%
X108025000Y-114025000D03*
%TO.P,_5,TP2*%
%TO.N,WE_NIP*%
X113025000Y-114025000D03*
%TO.P,_5,TP3*%
%TO.N,CE*%
X118025000Y-114025000D03*
%TO.P,_5,TP4*%
%TO.N,RE*%
X123025000Y-114025000D03*
%TD*%
%TO.P,_6,TP1*%
%TO.N,WE_MIP*%
X130025000Y-114025000D03*
%TO.P,_6,TP2*%
%TO.N,WE_NIP*%
X135025000Y-114025000D03*
%TO.P,_6,TP3*%
%TO.N,CE*%
X140025000Y-114025000D03*
%TO.P,_6,TP4*%
%TO.N,RE*%
X145025000Y-114025000D03*
%TD*%
%TO.P,_7,TP1*%
%TO.N,WE_MIP*%
X152025000Y-114025000D03*
%TO.P,_7,TP2*%
%TO.N,WE_NIP*%
X157025000Y-114025000D03*
%TO.P,_7,TP3*%
%TO.N,CE*%
X162025000Y-114025000D03*
%TO.P,_7,TP4*%
%TO.N,RE*%
X167025000Y-114025000D03*
%TD*%
%TO.P,_8,TP1*%
%TO.N,WE_MIP*%
X174025000Y-114025000D03*
%TO.P,_8,TP2*%
%TO.N,WE_NIP*%
X179025000Y-114025000D03*
%TO.P,_8,TP3*%
%TO.N,CE*%
X184025000Y-114025000D03*
%TO.P,_8,TP4*%
%TO.N,RE*%
X189025000Y-114025000D03*
%TD*%
%TO.P,_9,TP1*%
%TO.N,WE_MIP*%
X108025000Y-136025000D03*
%TO.P,_9,TP2*%
%TO.N,WE_NIP*%
X113025000Y-136025000D03*
%TO.P,_9,TP3*%
%TO.N,CE*%
X118025000Y-136025000D03*
%TO.P,_9,TP4*%
%TO.N,RE*%
X123025000Y-136025000D03*
%TD*%
%TO.P,_10,TP1*%
%TO.N,WE_MIP*%
X130025000Y-136025000D03*
%TO.P,_10,TP2*%
%TO.N,WE_NIP*%
X135025000Y-136025000D03*
%TO.P,_10,TP3*%
%TO.N,CE*%
X140025000Y-136025000D03*
%TO.P,_10,TP4*%
%TO.N,RE*%
X145025000Y-136025000D03*
%TD*%
%TO.P,_11,TP1*%
%TO.N,WE_MIP*%
X152025000Y-136025000D03*
%TO.P,_11,TP2*%
%TO.N,WE_NIP*%
X157025000Y-136025000D03*
%TO.P,_11,TP3*%
%TO.N,CE*%
X162025000Y-136025000D03*
%TO.P,_11,TP4*%
%TO.N,RE*%
X167025000Y-136025000D03*
%TD*%
%TO.P,_12,TP1*%
%TO.N,WE_MIP*%
X174025000Y-136025000D03*
%TO.P,_12,TP2*%
%TO.N,WE_NIP*%
X179025000Y-136025000D03*
%TO.P,_12,TP3*%
%TO.N,CE*%
X184025000Y-136025000D03*
%TO.P,_12,TP4*%
%TO.N,RE*%
X189025000Y-136025000D03*
%TD*%
D16*
%TO.N,WE_MIP*%
X158025000Y-125025000D03*
X180025000Y-125025000D03*
X158025000Y-103025000D03*
X136025000Y-103025000D03*
X136025000Y-125025000D03*
X136025000Y-81025000D03*
X180025000Y-81025000D03*
X180025000Y-103025000D03*
X158025000Y-81025000D03*
X114025000Y-103025000D03*
X114025000Y-81025000D03*
X114025000Y-125025000D03*
%TO.N,WE_NIP*%
X139025000Y-125025000D03*
X183025000Y-125025000D03*
X139025000Y-81025000D03*
X183025000Y-81025000D03*
X183025000Y-103025000D03*
X161025000Y-103025000D03*
X161025000Y-125025000D03*
X117025000Y-81025000D03*
X117025000Y-125025000D03*
X139025000Y-103025000D03*
X161025000Y-81025000D03*
X117025000Y-103025000D03*
%TO.N,CE*%
X111525000Y-85025000D03*
X185525000Y-129025000D03*
X155525000Y-85025000D03*
X155525000Y-107025000D03*
X111525000Y-129025000D03*
X177525000Y-107025000D03*
X119525000Y-129025000D03*
X133525000Y-85025000D03*
X133525000Y-107025000D03*
X119525000Y-107025000D03*
X177525000Y-85025000D03*
X163525000Y-107025000D03*
X185525000Y-107025000D03*
X119525000Y-85025000D03*
X185525000Y-85025000D03*
X133525000Y-129025000D03*
X141525000Y-129025000D03*
X163525000Y-85025000D03*
X163525000Y-129025000D03*
X177525000Y-129025000D03*
X141525000Y-85025000D03*
X155525000Y-129025000D03*
X141525000Y-107025000D03*
X111525000Y-107025000D03*
%TO.N,RE*%
X138325000Y-88525000D03*
X182325000Y-88525000D03*
X116325000Y-88525000D03*
X116325000Y-132525000D03*
X182325000Y-110525000D03*
X182325000Y-132525000D03*
X138325000Y-132525000D03*
X138325000Y-110525000D03*
X160325000Y-110525000D03*
X116325000Y-110525000D03*
X160325000Y-132525000D03*
X160325000Y-88525000D03*
%TD*%
%TO.N,WE_MIP*%
D17*
X127525000Y-94025000D02*
X127525000Y-112025000D01*
D18*
X171525000Y-81025000D02*
X176525000Y-81025000D01*
D17*
X171525000Y-94025000D02*
X171525000Y-112025000D01*
D18*
X110525000Y-103025000D02*
X108025000Y-114025000D01*
D17*
X149525000Y-72025000D02*
X149525000Y-90025000D01*
D18*
X110525000Y-81025000D02*
X108025000Y-92025000D01*
X171525000Y-103025000D02*
X176525000Y-103025000D01*
X154525000Y-125025000D02*
X152025000Y-136025000D01*
D17*
X149525000Y-94025000D02*
X149525000Y-112025000D01*
D18*
X132525000Y-125025000D02*
X130025000Y-136025000D01*
X149525000Y-125025000D02*
X154525000Y-125025000D01*
X127525000Y-125025000D02*
X132525000Y-125025000D01*
D17*
X105525000Y-116025000D02*
X105525000Y-134025000D01*
D18*
X171525000Y-125025000D02*
X176525000Y-125025000D01*
X149525000Y-103025000D02*
X154525000Y-103025000D01*
D17*
X127525000Y-116025000D02*
X127525000Y-134025000D01*
D18*
X149525000Y-81025000D02*
X154525000Y-81025000D01*
X176525000Y-125025000D02*
X174025000Y-136025000D01*
D17*
X105525000Y-94025000D02*
X105525000Y-112025000D01*
D18*
X105525000Y-103025000D02*
X110525000Y-103025000D01*
X127525000Y-103025000D02*
X132525000Y-103025000D01*
X110525000Y-125025000D02*
X108025000Y-136025000D01*
X154525000Y-81025000D02*
X152025000Y-92025000D01*
D17*
X127525000Y-72025000D02*
X127525000Y-90025000D01*
D18*
X132525000Y-103025000D02*
X130025000Y-114025000D01*
X127525000Y-81025000D02*
X132525000Y-81025000D01*
D17*
X105525000Y-72025000D02*
X105525000Y-90025000D01*
D18*
X154525000Y-103025000D02*
X152025000Y-114025000D01*
X105525000Y-125025000D02*
X110525000Y-125025000D01*
X176525000Y-103025000D02*
X174025000Y-114025000D01*
D17*
X149525000Y-116025000D02*
X149525000Y-134025000D01*
D18*
X105525000Y-81025000D02*
X110525000Y-81025000D01*
D17*
X171525000Y-116025000D02*
X171525000Y-134025000D01*
X171525000Y-72025000D02*
X171525000Y-90025000D01*
D18*
X132525000Y-81025000D02*
X130025000Y-92025000D01*
X176525000Y-81025000D02*
X174025000Y-92025000D01*
%TO.N,WE_NIP*%
X186525000Y-81025000D02*
X179025000Y-92025000D01*
D17*
X191525000Y-72025000D02*
X191525000Y-90025000D01*
D18*
X125525000Y-125025000D02*
X120525000Y-125025000D01*
X142525000Y-81025000D02*
X135025000Y-92025000D01*
X147525000Y-81025000D02*
X142525000Y-81025000D01*
X169525000Y-81025000D02*
X164525000Y-81025000D01*
D17*
X147525000Y-72025000D02*
X147525000Y-90025000D01*
X169525000Y-72025000D02*
X169525000Y-90025000D01*
D18*
X120525000Y-81025000D02*
X113025000Y-92025000D01*
X125525000Y-103025000D02*
X120525000Y-103025000D01*
X120525000Y-103025000D02*
X113025000Y-114025000D01*
D17*
X191525000Y-94025000D02*
X191525000Y-112025000D01*
X125525000Y-94025000D02*
X125525000Y-112025000D01*
X147525000Y-94025000D02*
X147525000Y-112025000D01*
D18*
X164525000Y-125025000D02*
X157025000Y-136025000D01*
X142525000Y-103025000D02*
X135025000Y-114025000D01*
X186525000Y-103025000D02*
X179025000Y-114025000D01*
D17*
X169525000Y-94025000D02*
X169525000Y-112025000D01*
D18*
X164525000Y-103025000D02*
X157025000Y-114025000D01*
X191525000Y-81025000D02*
X186525000Y-81025000D01*
X169525000Y-103025000D02*
X164525000Y-103025000D01*
D17*
X169525000Y-116025000D02*
X169525000Y-134025000D01*
D18*
X125525000Y-81025000D02*
X120525000Y-81025000D01*
X191525000Y-125025000D02*
X186525000Y-125025000D01*
D17*
X125525000Y-72025000D02*
X125525000Y-90025000D01*
D18*
X164525000Y-81025000D02*
X157025000Y-92025000D01*
X169525000Y-125025000D02*
X164525000Y-125025000D01*
X142525000Y-125025000D02*
X135025000Y-136025000D01*
X186525000Y-125025000D02*
X179025000Y-136025000D01*
X120525000Y-125025000D02*
X113025000Y-136025000D01*
X147525000Y-103025000D02*
X142525000Y-103025000D01*
D17*
X191525000Y-116025000D02*
X191525000Y-134025000D01*
X147525000Y-116025000D02*
X147525000Y-134025000D01*
D18*
X147525000Y-125025000D02*
X142525000Y-125025000D01*
X191525000Y-103025000D02*
X186525000Y-103025000D01*
D17*
X125525000Y-116025000D02*
X125525000Y-134025000D01*
%TO.N,CE*%
D18*
X115525000Y-108525000D02*
X118025000Y-114025000D01*
X181525000Y-86525000D02*
X184025000Y-92025000D01*
X137525000Y-108525000D02*
X140025000Y-114025000D01*
X137525000Y-130525000D02*
X140025000Y-136025000D01*
X115525000Y-130525000D02*
X118025000Y-136025000D01*
X181525000Y-130525000D02*
X184025000Y-136025000D01*
X137525000Y-86525000D02*
X140025000Y-92025000D01*
X159525000Y-108525000D02*
X162025000Y-114025000D01*
X115525000Y-86525000D02*
X118025000Y-92025000D01*
X159525000Y-86525000D02*
X162025000Y-92025000D01*
X159525000Y-130525000D02*
X162025000Y-136025000D01*
X181525000Y-108525000D02*
X184025000Y-114025000D01*
%TO.N,RE*%
X115525000Y-110525000D02*
X123025000Y-114025000D01*
X181525000Y-88525000D02*
X189025000Y-92025000D01*
X115525000Y-132525000D02*
X123025000Y-136025000D01*
X159525000Y-110525000D02*
X167025000Y-114025000D01*
X137525000Y-132525000D02*
X145025000Y-136025000D01*
X181525000Y-132525000D02*
X189025000Y-136025000D01*
X115525000Y-88525000D02*
X123025000Y-92025000D01*
X137525000Y-110525000D02*
X145025000Y-114025000D01*
X137525000Y-88525000D02*
X145025000Y-92025000D01*
X181525000Y-110525000D02*
X189025000Y-114025000D01*
X159525000Y-132525000D02*
X167025000Y-136025000D01*
X159525000Y-88525000D02*
X167025000Y-92025000D01*
%TD*%
M02*
