%TF.GenerationSoftware,KiCad,Pcbnew,10.0.0*%
%TF.CreationDate,2026-04-12T17:16:48-04:00*%
%TF.ProjectId,cortipod-electrode-panel,636f7274-6970-46f6-942d-656c65637472,rev?*%
%TF.SameCoordinates,Original*%
%TF.FileFunction,Other,Comment*%
%FSLAX46Y46*%
G04 Gerber Fmt 4.6, Leading zero omitted, Abs format (unit mm)*
G04 Created by KiCad (PCBNEW 10.0.0) date 2026-04-12 17:16:48*
%MOMM*%
%LPD*%
G01*
G04 APERTURE LIST*
%ADD10C,0.150000*%
G04 APERTURE END LIST*
D10*
X104500000Y-94000000D02*
X192500000Y-94000000D01*
X104500000Y-116000000D02*
X192500000Y-116000000D01*
X126500000Y-72000000D02*
X126500000Y-138000000D01*
X148500000Y-72000000D02*
X148500000Y-138000000D01*
X170500000Y-72000000D02*
X170500000Y-138000000D01*
X122261900Y-69359580D02*
X122214281Y-69407200D01*
X122214281Y-69407200D02*
X122071424Y-69454819D01*
X122071424Y-69454819D02*
X121976186Y-69454819D01*
X121976186Y-69454819D02*
X121833329Y-69407200D01*
X121833329Y-69407200D02*
X121738091Y-69311961D01*
X121738091Y-69311961D02*
X121690472Y-69216723D01*
X121690472Y-69216723D02*
X121642853Y-69026247D01*
X121642853Y-69026247D02*
X121642853Y-68883390D01*
X121642853Y-68883390D02*
X121690472Y-68692914D01*
X121690472Y-68692914D02*
X121738091Y-68597676D01*
X121738091Y-68597676D02*
X121833329Y-68502438D01*
X121833329Y-68502438D02*
X121976186Y-68454819D01*
X121976186Y-68454819D02*
X122071424Y-68454819D01*
X122071424Y-68454819D02*
X122214281Y-68502438D01*
X122214281Y-68502438D02*
X122261900Y-68550057D01*
X122833329Y-69454819D02*
X122738091Y-69407200D01*
X122738091Y-69407200D02*
X122690472Y-69359580D01*
X122690472Y-69359580D02*
X122642853Y-69264342D01*
X122642853Y-69264342D02*
X122642853Y-68978628D01*
X122642853Y-68978628D02*
X122690472Y-68883390D01*
X122690472Y-68883390D02*
X122738091Y-68835771D01*
X122738091Y-68835771D02*
X122833329Y-68788152D01*
X122833329Y-68788152D02*
X122976186Y-68788152D01*
X122976186Y-68788152D02*
X123071424Y-68835771D01*
X123071424Y-68835771D02*
X123119043Y-68883390D01*
X123119043Y-68883390D02*
X123166662Y-68978628D01*
X123166662Y-68978628D02*
X123166662Y-69264342D01*
X123166662Y-69264342D02*
X123119043Y-69359580D01*
X123119043Y-69359580D02*
X123071424Y-69407200D01*
X123071424Y-69407200D02*
X122976186Y-69454819D01*
X122976186Y-69454819D02*
X122833329Y-69454819D01*
X123595234Y-69454819D02*
X123595234Y-68788152D01*
X123595234Y-68978628D02*
X123642853Y-68883390D01*
X123642853Y-68883390D02*
X123690472Y-68835771D01*
X123690472Y-68835771D02*
X123785710Y-68788152D01*
X123785710Y-68788152D02*
X123880948Y-68788152D01*
X124071425Y-68788152D02*
X124452377Y-68788152D01*
X124214282Y-68454819D02*
X124214282Y-69311961D01*
X124214282Y-69311961D02*
X124261901Y-69407200D01*
X124261901Y-69407200D02*
X124357139Y-69454819D01*
X124357139Y-69454819D02*
X124452377Y-69454819D01*
X124785711Y-69454819D02*
X124785711Y-68788152D01*
X124785711Y-68454819D02*
X124738092Y-68502438D01*
X124738092Y-68502438D02*
X124785711Y-68550057D01*
X124785711Y-68550057D02*
X124833330Y-68502438D01*
X124833330Y-68502438D02*
X124785711Y-68454819D01*
X124785711Y-68454819D02*
X124785711Y-68550057D01*
X125261901Y-69454819D02*
X125261901Y-68454819D01*
X125261901Y-68454819D02*
X125642853Y-68454819D01*
X125642853Y-68454819D02*
X125738091Y-68502438D01*
X125738091Y-68502438D02*
X125785710Y-68550057D01*
X125785710Y-68550057D02*
X125833329Y-68645295D01*
X125833329Y-68645295D02*
X125833329Y-68788152D01*
X125833329Y-68788152D02*
X125785710Y-68883390D01*
X125785710Y-68883390D02*
X125738091Y-68931009D01*
X125738091Y-68931009D02*
X125642853Y-68978628D01*
X125642853Y-68978628D02*
X125261901Y-68978628D01*
X126404758Y-69454819D02*
X126309520Y-69407200D01*
X126309520Y-69407200D02*
X126261901Y-69359580D01*
X126261901Y-69359580D02*
X126214282Y-69264342D01*
X126214282Y-69264342D02*
X126214282Y-68978628D01*
X126214282Y-68978628D02*
X126261901Y-68883390D01*
X126261901Y-68883390D02*
X126309520Y-68835771D01*
X126309520Y-68835771D02*
X126404758Y-68788152D01*
X126404758Y-68788152D02*
X126547615Y-68788152D01*
X126547615Y-68788152D02*
X126642853Y-68835771D01*
X126642853Y-68835771D02*
X126690472Y-68883390D01*
X126690472Y-68883390D02*
X126738091Y-68978628D01*
X126738091Y-68978628D02*
X126738091Y-69264342D01*
X126738091Y-69264342D02*
X126690472Y-69359580D01*
X126690472Y-69359580D02*
X126642853Y-69407200D01*
X126642853Y-69407200D02*
X126547615Y-69454819D01*
X126547615Y-69454819D02*
X126404758Y-69454819D01*
X127595234Y-69454819D02*
X127595234Y-68454819D01*
X127595234Y-69407200D02*
X127499996Y-69454819D01*
X127499996Y-69454819D02*
X127309520Y-69454819D01*
X127309520Y-69454819D02*
X127214282Y-69407200D01*
X127214282Y-69407200D02*
X127166663Y-69359580D01*
X127166663Y-69359580D02*
X127119044Y-69264342D01*
X127119044Y-69264342D02*
X127119044Y-68978628D01*
X127119044Y-68978628D02*
X127166663Y-68883390D01*
X127166663Y-68883390D02*
X127214282Y-68835771D01*
X127214282Y-68835771D02*
X127309520Y-68788152D01*
X127309520Y-68788152D02*
X127499996Y-68788152D01*
X127499996Y-68788152D02*
X127595234Y-68835771D01*
X128833330Y-68931009D02*
X129166663Y-68931009D01*
X129309520Y-69454819D02*
X128833330Y-69454819D01*
X128833330Y-69454819D02*
X128833330Y-68454819D01*
X128833330Y-68454819D02*
X129309520Y-68454819D01*
X129880949Y-69454819D02*
X129785711Y-69407200D01*
X129785711Y-69407200D02*
X129738092Y-69311961D01*
X129738092Y-69311961D02*
X129738092Y-68454819D01*
X130642854Y-69407200D02*
X130547616Y-69454819D01*
X130547616Y-69454819D02*
X130357140Y-69454819D01*
X130357140Y-69454819D02*
X130261902Y-69407200D01*
X130261902Y-69407200D02*
X130214283Y-69311961D01*
X130214283Y-69311961D02*
X130214283Y-68931009D01*
X130214283Y-68931009D02*
X130261902Y-68835771D01*
X130261902Y-68835771D02*
X130357140Y-68788152D01*
X130357140Y-68788152D02*
X130547616Y-68788152D01*
X130547616Y-68788152D02*
X130642854Y-68835771D01*
X130642854Y-68835771D02*
X130690473Y-68931009D01*
X130690473Y-68931009D02*
X130690473Y-69026247D01*
X130690473Y-69026247D02*
X130214283Y-69121485D01*
X131547616Y-69407200D02*
X131452378Y-69454819D01*
X131452378Y-69454819D02*
X131261902Y-69454819D01*
X131261902Y-69454819D02*
X131166664Y-69407200D01*
X131166664Y-69407200D02*
X131119045Y-69359580D01*
X131119045Y-69359580D02*
X131071426Y-69264342D01*
X131071426Y-69264342D02*
X131071426Y-68978628D01*
X131071426Y-68978628D02*
X131119045Y-68883390D01*
X131119045Y-68883390D02*
X131166664Y-68835771D01*
X131166664Y-68835771D02*
X131261902Y-68788152D01*
X131261902Y-68788152D02*
X131452378Y-68788152D01*
X131452378Y-68788152D02*
X131547616Y-68835771D01*
X131833331Y-68788152D02*
X132214283Y-68788152D01*
X131976188Y-68454819D02*
X131976188Y-69311961D01*
X131976188Y-69311961D02*
X132023807Y-69407200D01*
X132023807Y-69407200D02*
X132119045Y-69454819D01*
X132119045Y-69454819D02*
X132214283Y-69454819D01*
X132547617Y-69454819D02*
X132547617Y-68788152D01*
X132547617Y-68978628D02*
X132595236Y-68883390D01*
X132595236Y-68883390D02*
X132642855Y-68835771D01*
X132642855Y-68835771D02*
X132738093Y-68788152D01*
X132738093Y-68788152D02*
X132833331Y-68788152D01*
X133309522Y-69454819D02*
X133214284Y-69407200D01*
X133214284Y-69407200D02*
X133166665Y-69359580D01*
X133166665Y-69359580D02*
X133119046Y-69264342D01*
X133119046Y-69264342D02*
X133119046Y-68978628D01*
X133119046Y-68978628D02*
X133166665Y-68883390D01*
X133166665Y-68883390D02*
X133214284Y-68835771D01*
X133214284Y-68835771D02*
X133309522Y-68788152D01*
X133309522Y-68788152D02*
X133452379Y-68788152D01*
X133452379Y-68788152D02*
X133547617Y-68835771D01*
X133547617Y-68835771D02*
X133595236Y-68883390D01*
X133595236Y-68883390D02*
X133642855Y-68978628D01*
X133642855Y-68978628D02*
X133642855Y-69264342D01*
X133642855Y-69264342D02*
X133595236Y-69359580D01*
X133595236Y-69359580D02*
X133547617Y-69407200D01*
X133547617Y-69407200D02*
X133452379Y-69454819D01*
X133452379Y-69454819D02*
X133309522Y-69454819D01*
X134499998Y-69454819D02*
X134499998Y-68454819D01*
X134499998Y-69407200D02*
X134404760Y-69454819D01*
X134404760Y-69454819D02*
X134214284Y-69454819D01*
X134214284Y-69454819D02*
X134119046Y-69407200D01*
X134119046Y-69407200D02*
X134071427Y-69359580D01*
X134071427Y-69359580D02*
X134023808Y-69264342D01*
X134023808Y-69264342D02*
X134023808Y-68978628D01*
X134023808Y-68978628D02*
X134071427Y-68883390D01*
X134071427Y-68883390D02*
X134119046Y-68835771D01*
X134119046Y-68835771D02*
X134214284Y-68788152D01*
X134214284Y-68788152D02*
X134404760Y-68788152D01*
X134404760Y-68788152D02*
X134499998Y-68835771D01*
X135357141Y-69407200D02*
X135261903Y-69454819D01*
X135261903Y-69454819D02*
X135071427Y-69454819D01*
X135071427Y-69454819D02*
X134976189Y-69407200D01*
X134976189Y-69407200D02*
X134928570Y-69311961D01*
X134928570Y-69311961D02*
X134928570Y-68931009D01*
X134928570Y-68931009D02*
X134976189Y-68835771D01*
X134976189Y-68835771D02*
X135071427Y-68788152D01*
X135071427Y-68788152D02*
X135261903Y-68788152D01*
X135261903Y-68788152D02*
X135357141Y-68835771D01*
X135357141Y-68835771D02*
X135404760Y-68931009D01*
X135404760Y-68931009D02*
X135404760Y-69026247D01*
X135404760Y-69026247D02*
X134928570Y-69121485D01*
X136595237Y-69454819D02*
X136595237Y-68454819D01*
X136595237Y-68454819D02*
X136976189Y-68454819D01*
X136976189Y-68454819D02*
X137071427Y-68502438D01*
X137071427Y-68502438D02*
X137119046Y-68550057D01*
X137119046Y-68550057D02*
X137166665Y-68645295D01*
X137166665Y-68645295D02*
X137166665Y-68788152D01*
X137166665Y-68788152D02*
X137119046Y-68883390D01*
X137119046Y-68883390D02*
X137071427Y-68931009D01*
X137071427Y-68931009D02*
X136976189Y-68978628D01*
X136976189Y-68978628D02*
X136595237Y-68978628D01*
X138023808Y-69454819D02*
X138023808Y-68931009D01*
X138023808Y-68931009D02*
X137976189Y-68835771D01*
X137976189Y-68835771D02*
X137880951Y-68788152D01*
X137880951Y-68788152D02*
X137690475Y-68788152D01*
X137690475Y-68788152D02*
X137595237Y-68835771D01*
X138023808Y-69407200D02*
X137928570Y-69454819D01*
X137928570Y-69454819D02*
X137690475Y-69454819D01*
X137690475Y-69454819D02*
X137595237Y-69407200D01*
X137595237Y-69407200D02*
X137547618Y-69311961D01*
X137547618Y-69311961D02*
X137547618Y-69216723D01*
X137547618Y-69216723D02*
X137595237Y-69121485D01*
X137595237Y-69121485D02*
X137690475Y-69073866D01*
X137690475Y-69073866D02*
X137928570Y-69073866D01*
X137928570Y-69073866D02*
X138023808Y-69026247D01*
X138499999Y-68788152D02*
X138499999Y-69454819D01*
X138499999Y-68883390D02*
X138547618Y-68835771D01*
X138547618Y-68835771D02*
X138642856Y-68788152D01*
X138642856Y-68788152D02*
X138785713Y-68788152D01*
X138785713Y-68788152D02*
X138880951Y-68835771D01*
X138880951Y-68835771D02*
X138928570Y-68931009D01*
X138928570Y-68931009D02*
X138928570Y-69454819D01*
X139785713Y-69407200D02*
X139690475Y-69454819D01*
X139690475Y-69454819D02*
X139499999Y-69454819D01*
X139499999Y-69454819D02*
X139404761Y-69407200D01*
X139404761Y-69407200D02*
X139357142Y-69311961D01*
X139357142Y-69311961D02*
X139357142Y-68931009D01*
X139357142Y-68931009D02*
X139404761Y-68835771D01*
X139404761Y-68835771D02*
X139499999Y-68788152D01*
X139499999Y-68788152D02*
X139690475Y-68788152D01*
X139690475Y-68788152D02*
X139785713Y-68835771D01*
X139785713Y-68835771D02*
X139833332Y-68931009D01*
X139833332Y-68931009D02*
X139833332Y-69026247D01*
X139833332Y-69026247D02*
X139357142Y-69121485D01*
X140404761Y-69454819D02*
X140309523Y-69407200D01*
X140309523Y-69407200D02*
X140261904Y-69311961D01*
X140261904Y-69311961D02*
X140261904Y-68454819D01*
X141976190Y-68788152D02*
X141976190Y-69454819D01*
X141738095Y-68407200D02*
X141500000Y-69121485D01*
X141500000Y-69121485D02*
X142119047Y-69121485D01*
X142404762Y-69454819D02*
X142928571Y-68788152D01*
X142404762Y-68788152D02*
X142928571Y-69454819D01*
X143214286Y-68454819D02*
X143833333Y-68454819D01*
X143833333Y-68454819D02*
X143500000Y-68835771D01*
X143500000Y-68835771D02*
X143642857Y-68835771D01*
X143642857Y-68835771D02*
X143738095Y-68883390D01*
X143738095Y-68883390D02*
X143785714Y-68931009D01*
X143785714Y-68931009D02*
X143833333Y-69026247D01*
X143833333Y-69026247D02*
X143833333Y-69264342D01*
X143833333Y-69264342D02*
X143785714Y-69359580D01*
X143785714Y-69359580D02*
X143738095Y-69407200D01*
X143738095Y-69407200D02*
X143642857Y-69454819D01*
X143642857Y-69454819D02*
X143357143Y-69454819D01*
X143357143Y-69454819D02*
X143261905Y-69407200D01*
X143261905Y-69407200D02*
X143214286Y-69359580D01*
X145023810Y-68931009D02*
X145785715Y-68931009D01*
X145785715Y-69216723D02*
X145023810Y-69216723D01*
X147547619Y-69454819D02*
X146976191Y-69454819D01*
X147261905Y-69454819D02*
X147261905Y-68454819D01*
X147261905Y-68454819D02*
X147166667Y-68597676D01*
X147166667Y-68597676D02*
X147071429Y-68692914D01*
X147071429Y-68692914D02*
X146976191Y-68740533D01*
X147928572Y-68550057D02*
X147976191Y-68502438D01*
X147976191Y-68502438D02*
X148071429Y-68454819D01*
X148071429Y-68454819D02*
X148309524Y-68454819D01*
X148309524Y-68454819D02*
X148404762Y-68502438D01*
X148404762Y-68502438D02*
X148452381Y-68550057D01*
X148452381Y-68550057D02*
X148500000Y-68645295D01*
X148500000Y-68645295D02*
X148500000Y-68740533D01*
X148500000Y-68740533D02*
X148452381Y-68883390D01*
X148452381Y-68883390D02*
X147880953Y-69454819D01*
X147880953Y-69454819D02*
X148500000Y-69454819D01*
X150119048Y-69407200D02*
X150023810Y-69454819D01*
X150023810Y-69454819D02*
X149833334Y-69454819D01*
X149833334Y-69454819D02*
X149738096Y-69407200D01*
X149738096Y-69407200D02*
X149690477Y-69359580D01*
X149690477Y-69359580D02*
X149642858Y-69264342D01*
X149642858Y-69264342D02*
X149642858Y-68978628D01*
X149642858Y-68978628D02*
X149690477Y-68883390D01*
X149690477Y-68883390D02*
X149738096Y-68835771D01*
X149738096Y-68835771D02*
X149833334Y-68788152D01*
X149833334Y-68788152D02*
X150023810Y-68788152D01*
X150023810Y-68788152D02*
X150119048Y-68835771D01*
X150928572Y-69407200D02*
X150833334Y-69454819D01*
X150833334Y-69454819D02*
X150642858Y-69454819D01*
X150642858Y-69454819D02*
X150547620Y-69407200D01*
X150547620Y-69407200D02*
X150500001Y-69311961D01*
X150500001Y-69311961D02*
X150500001Y-68931009D01*
X150500001Y-68931009D02*
X150547620Y-68835771D01*
X150547620Y-68835771D02*
X150642858Y-68788152D01*
X150642858Y-68788152D02*
X150833334Y-68788152D01*
X150833334Y-68788152D02*
X150928572Y-68835771D01*
X150928572Y-68835771D02*
X150976191Y-68931009D01*
X150976191Y-68931009D02*
X150976191Y-69026247D01*
X150976191Y-69026247D02*
X150500001Y-69121485D01*
X151547620Y-69454819D02*
X151452382Y-69407200D01*
X151452382Y-69407200D02*
X151404763Y-69311961D01*
X151404763Y-69311961D02*
X151404763Y-68454819D01*
X152071430Y-69454819D02*
X151976192Y-69407200D01*
X151976192Y-69407200D02*
X151928573Y-69311961D01*
X151928573Y-69311961D02*
X151928573Y-68454819D01*
X152404764Y-69407200D02*
X152500002Y-69454819D01*
X152500002Y-69454819D02*
X152690478Y-69454819D01*
X152690478Y-69454819D02*
X152785716Y-69407200D01*
X152785716Y-69407200D02*
X152833335Y-69311961D01*
X152833335Y-69311961D02*
X152833335Y-69264342D01*
X152833335Y-69264342D02*
X152785716Y-69169104D01*
X152785716Y-69169104D02*
X152690478Y-69121485D01*
X152690478Y-69121485D02*
X152547621Y-69121485D01*
X152547621Y-69121485D02*
X152452383Y-69073866D01*
X152452383Y-69073866D02*
X152404764Y-68978628D01*
X152404764Y-68978628D02*
X152404764Y-68931009D01*
X152404764Y-68931009D02*
X152452383Y-68835771D01*
X152452383Y-68835771D02*
X152547621Y-68788152D01*
X152547621Y-68788152D02*
X152690478Y-68788152D01*
X152690478Y-68788152D02*
X152785716Y-68835771D01*
X154023812Y-69073866D02*
X154785717Y-69073866D01*
X155880955Y-68454819D02*
X156214288Y-69454819D01*
X156214288Y-69454819D02*
X156547621Y-68454819D01*
X156880955Y-69073866D02*
X157642860Y-69073866D01*
X158071431Y-69407200D02*
X158214288Y-69454819D01*
X158214288Y-69454819D02*
X158452383Y-69454819D01*
X158452383Y-69454819D02*
X158547621Y-69407200D01*
X158547621Y-69407200D02*
X158595240Y-69359580D01*
X158595240Y-69359580D02*
X158642859Y-69264342D01*
X158642859Y-69264342D02*
X158642859Y-69169104D01*
X158642859Y-69169104D02*
X158595240Y-69073866D01*
X158595240Y-69073866D02*
X158547621Y-69026247D01*
X158547621Y-69026247D02*
X158452383Y-68978628D01*
X158452383Y-68978628D02*
X158261907Y-68931009D01*
X158261907Y-68931009D02*
X158166669Y-68883390D01*
X158166669Y-68883390D02*
X158119050Y-68835771D01*
X158119050Y-68835771D02*
X158071431Y-68740533D01*
X158071431Y-68740533D02*
X158071431Y-68645295D01*
X158071431Y-68645295D02*
X158119050Y-68550057D01*
X158119050Y-68550057D02*
X158166669Y-68502438D01*
X158166669Y-68502438D02*
X158261907Y-68454819D01*
X158261907Y-68454819D02*
X158500002Y-68454819D01*
X158500002Y-68454819D02*
X158642859Y-68502438D01*
X159642859Y-69359580D02*
X159595240Y-69407200D01*
X159595240Y-69407200D02*
X159452383Y-69454819D01*
X159452383Y-69454819D02*
X159357145Y-69454819D01*
X159357145Y-69454819D02*
X159214288Y-69407200D01*
X159214288Y-69407200D02*
X159119050Y-69311961D01*
X159119050Y-69311961D02*
X159071431Y-69216723D01*
X159071431Y-69216723D02*
X159023812Y-69026247D01*
X159023812Y-69026247D02*
X159023812Y-68883390D01*
X159023812Y-68883390D02*
X159071431Y-68692914D01*
X159071431Y-68692914D02*
X159119050Y-68597676D01*
X159119050Y-68597676D02*
X159214288Y-68502438D01*
X159214288Y-68502438D02*
X159357145Y-68454819D01*
X159357145Y-68454819D02*
X159452383Y-68454819D01*
X159452383Y-68454819D02*
X159595240Y-68502438D01*
X159595240Y-68502438D02*
X159642859Y-68550057D01*
X160261907Y-68454819D02*
X160452383Y-68454819D01*
X160452383Y-68454819D02*
X160547621Y-68502438D01*
X160547621Y-68502438D02*
X160642859Y-68597676D01*
X160642859Y-68597676D02*
X160690478Y-68788152D01*
X160690478Y-68788152D02*
X160690478Y-69121485D01*
X160690478Y-69121485D02*
X160642859Y-69311961D01*
X160642859Y-69311961D02*
X160547621Y-69407200D01*
X160547621Y-69407200D02*
X160452383Y-69454819D01*
X160452383Y-69454819D02*
X160261907Y-69454819D01*
X160261907Y-69454819D02*
X160166669Y-69407200D01*
X160166669Y-69407200D02*
X160071431Y-69311961D01*
X160071431Y-69311961D02*
X160023812Y-69121485D01*
X160023812Y-69121485D02*
X160023812Y-68788152D01*
X160023812Y-68788152D02*
X160071431Y-68597676D01*
X160071431Y-68597676D02*
X160166669Y-68502438D01*
X160166669Y-68502438D02*
X160261907Y-68454819D01*
X161690478Y-69454819D02*
X161357145Y-68978628D01*
X161119050Y-69454819D02*
X161119050Y-68454819D01*
X161119050Y-68454819D02*
X161500002Y-68454819D01*
X161500002Y-68454819D02*
X161595240Y-68502438D01*
X161595240Y-68502438D02*
X161642859Y-68550057D01*
X161642859Y-68550057D02*
X161690478Y-68645295D01*
X161690478Y-68645295D02*
X161690478Y-68788152D01*
X161690478Y-68788152D02*
X161642859Y-68883390D01*
X161642859Y-68883390D02*
X161595240Y-68931009D01*
X161595240Y-68931009D02*
X161500002Y-68978628D01*
X161500002Y-68978628D02*
X161119050Y-68978628D01*
X162119050Y-68931009D02*
X162452383Y-68931009D01*
X162595240Y-69454819D02*
X162119050Y-69454819D01*
X162119050Y-69454819D02*
X162119050Y-68454819D01*
X162119050Y-68454819D02*
X162595240Y-68454819D01*
X164214288Y-69454819D02*
X164214288Y-68931009D01*
X164214288Y-68931009D02*
X164166669Y-68835771D01*
X164166669Y-68835771D02*
X164071431Y-68788152D01*
X164071431Y-68788152D02*
X163880955Y-68788152D01*
X163880955Y-68788152D02*
X163785717Y-68835771D01*
X164214288Y-69407200D02*
X164119050Y-69454819D01*
X164119050Y-69454819D02*
X163880955Y-69454819D01*
X163880955Y-69454819D02*
X163785717Y-69407200D01*
X163785717Y-69407200D02*
X163738098Y-69311961D01*
X163738098Y-69311961D02*
X163738098Y-69216723D01*
X163738098Y-69216723D02*
X163785717Y-69121485D01*
X163785717Y-69121485D02*
X163880955Y-69073866D01*
X163880955Y-69073866D02*
X164119050Y-69073866D01*
X164119050Y-69073866D02*
X164214288Y-69026247D01*
X164547622Y-68788152D02*
X164928574Y-68788152D01*
X164690479Y-68454819D02*
X164690479Y-69311961D01*
X164690479Y-69311961D02*
X164738098Y-69407200D01*
X164738098Y-69407200D02*
X164833336Y-69454819D01*
X164833336Y-69454819D02*
X164928574Y-69454819D01*
X166023813Y-69454819D02*
X166023813Y-68788152D01*
X166023813Y-68883390D02*
X166071432Y-68835771D01*
X166071432Y-68835771D02*
X166166670Y-68788152D01*
X166166670Y-68788152D02*
X166309527Y-68788152D01*
X166309527Y-68788152D02*
X166404765Y-68835771D01*
X166404765Y-68835771D02*
X166452384Y-68931009D01*
X166452384Y-68931009D02*
X166452384Y-69454819D01*
X166452384Y-68931009D02*
X166500003Y-68835771D01*
X166500003Y-68835771D02*
X166595241Y-68788152D01*
X166595241Y-68788152D02*
X166738098Y-68788152D01*
X166738098Y-68788152D02*
X166833337Y-68835771D01*
X166833337Y-68835771D02*
X166880956Y-68931009D01*
X166880956Y-68931009D02*
X166880956Y-69454819D01*
X167785717Y-69454819D02*
X167785717Y-68931009D01*
X167785717Y-68931009D02*
X167738098Y-68835771D01*
X167738098Y-68835771D02*
X167642860Y-68788152D01*
X167642860Y-68788152D02*
X167452384Y-68788152D01*
X167452384Y-68788152D02*
X167357146Y-68835771D01*
X167785717Y-69407200D02*
X167690479Y-69454819D01*
X167690479Y-69454819D02*
X167452384Y-69454819D01*
X167452384Y-69454819D02*
X167357146Y-69407200D01*
X167357146Y-69407200D02*
X167309527Y-69311961D01*
X167309527Y-69311961D02*
X167309527Y-69216723D01*
X167309527Y-69216723D02*
X167357146Y-69121485D01*
X167357146Y-69121485D02*
X167452384Y-69073866D01*
X167452384Y-69073866D02*
X167690479Y-69073866D01*
X167690479Y-69073866D02*
X167785717Y-69026247D01*
X168261908Y-69454819D02*
X168261908Y-68788152D01*
X168261908Y-68978628D02*
X168309527Y-68883390D01*
X168309527Y-68883390D02*
X168357146Y-68835771D01*
X168357146Y-68835771D02*
X168452384Y-68788152D01*
X168452384Y-68788152D02*
X168547622Y-68788152D01*
X168880956Y-69454819D02*
X168880956Y-68454819D01*
X168976194Y-69073866D02*
X169261908Y-69454819D01*
X169261908Y-68788152D02*
X168880956Y-69169104D01*
X170071432Y-69407200D02*
X169976194Y-69454819D01*
X169976194Y-69454819D02*
X169785718Y-69454819D01*
X169785718Y-69454819D02*
X169690480Y-69407200D01*
X169690480Y-69407200D02*
X169642861Y-69311961D01*
X169642861Y-69311961D02*
X169642861Y-68931009D01*
X169642861Y-68931009D02*
X169690480Y-68835771D01*
X169690480Y-68835771D02*
X169785718Y-68788152D01*
X169785718Y-68788152D02*
X169976194Y-68788152D01*
X169976194Y-68788152D02*
X170071432Y-68835771D01*
X170071432Y-68835771D02*
X170119051Y-68931009D01*
X170119051Y-68931009D02*
X170119051Y-69026247D01*
X170119051Y-69026247D02*
X169642861Y-69121485D01*
X170976194Y-69454819D02*
X170976194Y-68454819D01*
X170976194Y-69407200D02*
X170880956Y-69454819D01*
X170880956Y-69454819D02*
X170690480Y-69454819D01*
X170690480Y-69454819D02*
X170595242Y-69407200D01*
X170595242Y-69407200D02*
X170547623Y-69359580D01*
X170547623Y-69359580D02*
X170500004Y-69264342D01*
X170500004Y-69264342D02*
X170500004Y-68978628D01*
X170500004Y-68978628D02*
X170547623Y-68883390D01*
X170547623Y-68883390D02*
X170595242Y-68835771D01*
X170595242Y-68835771D02*
X170690480Y-68788152D01*
X170690480Y-68788152D02*
X170880956Y-68788152D01*
X170880956Y-68788152D02*
X170976194Y-68835771D01*
X172357147Y-69454819D02*
X172261909Y-69407200D01*
X172261909Y-69407200D02*
X172214290Y-69311961D01*
X172214290Y-69311961D02*
X172214290Y-68454819D01*
X172738100Y-69454819D02*
X172738100Y-68788152D01*
X172738100Y-68454819D02*
X172690481Y-68502438D01*
X172690481Y-68502438D02*
X172738100Y-68550057D01*
X172738100Y-68550057D02*
X172785719Y-68502438D01*
X172785719Y-68502438D02*
X172738100Y-68454819D01*
X172738100Y-68454819D02*
X172738100Y-68550057D01*
X173214290Y-68788152D02*
X173214290Y-69454819D01*
X173214290Y-68883390D02*
X173261909Y-68835771D01*
X173261909Y-68835771D02*
X173357147Y-68788152D01*
X173357147Y-68788152D02*
X173500004Y-68788152D01*
X173500004Y-68788152D02*
X173595242Y-68835771D01*
X173595242Y-68835771D02*
X173642861Y-68931009D01*
X173642861Y-68931009D02*
X173642861Y-69454819D01*
X174500004Y-69407200D02*
X174404766Y-69454819D01*
X174404766Y-69454819D02*
X174214290Y-69454819D01*
X174214290Y-69454819D02*
X174119052Y-69407200D01*
X174119052Y-69407200D02*
X174071433Y-69311961D01*
X174071433Y-69311961D02*
X174071433Y-68931009D01*
X174071433Y-68931009D02*
X174119052Y-68835771D01*
X174119052Y-68835771D02*
X174214290Y-68788152D01*
X174214290Y-68788152D02*
X174404766Y-68788152D01*
X174404766Y-68788152D02*
X174500004Y-68835771D01*
X174500004Y-68835771D02*
X174547623Y-68931009D01*
X174547623Y-68931009D02*
X174547623Y-69026247D01*
X174547623Y-69026247D02*
X174071433Y-69121485D01*
X174928576Y-69407200D02*
X175023814Y-69454819D01*
X175023814Y-69454819D02*
X175214290Y-69454819D01*
X175214290Y-69454819D02*
X175309528Y-69407200D01*
X175309528Y-69407200D02*
X175357147Y-69311961D01*
X175357147Y-69311961D02*
X175357147Y-69264342D01*
X175357147Y-69264342D02*
X175309528Y-69169104D01*
X175309528Y-69169104D02*
X175214290Y-69121485D01*
X175214290Y-69121485D02*
X175071433Y-69121485D01*
X175071433Y-69121485D02*
X174976195Y-69073866D01*
X174976195Y-69073866D02*
X174928576Y-68978628D01*
X174928576Y-68978628D02*
X174928576Y-68931009D01*
X174928576Y-68931009D02*
X174976195Y-68835771D01*
X174976195Y-68835771D02*
X175071433Y-68788152D01*
X175071433Y-68788152D02*
X175214290Y-68788152D01*
X175214290Y-68788152D02*
X175309528Y-68835771D01*
M02*
